<?xml version="1.0" encoding="UTF-8"?>
<svg xmlns="http://www.w3.org/2000/svg" xmlns:xlink="http://www.w3.org/1999/xlink" width="345pt" height="188pt" viewBox="0 0 345 188" version="1.1">
<g id="surface1">
<path style="fill-rule:nonzero;fill:rgb(69.803922%,85.098039%,100%);fill-opacity:1;stroke-width:1;stroke-linecap:round;stroke-linejoin:round;stroke:rgb(0%,0%,0%);stroke-opacity:1;stroke-miterlimit:10;" d="M 124.015625 139.234375 C 128.996875 144.215625 128.996875 152.284375 124.015625 157.265625 C 119.034375 162.246875 110.965625 162.246875 105.984375 157.265625 C 101.003125 152.284375 101.003125 144.215625 105.984375 139.234375 C 110.965625 134.253125 119.034375 134.253125 124.015625 139.234375 " transform="matrix(1.25,0,0,1.25,-28.75,-15)"/>
<path style=" stroke:none;fill-rule:nonzero;fill:rgb(0%,0%,0%);fill-opacity:1;" d="M 109.734375 173.292969 L 112.273438 170.324219 L 110.828125 167.453125 L 111.921875 167.453125 L 112.410156 168.488281 C 112.589844 168.878906 112.753906 169.261719 112.898438 169.621094 L 114.597656 167.453125 L 115.808594 167.453125 L 113.347656 170.402344 L 114.832031 173.292969 L 113.71875 173.292969 L 113.152344 172.101562 C 113.019531 171.859375 112.878906 171.546875 112.722656 171.164062 L 110.984375 173.292969 Z M 109.734375 173.292969 "/>
<path style=" stroke:none;fill-rule:nonzero;fill:rgb(0%,0%,0%);fill-opacity:1;" d="M 117.488281 175.792969 L 118.484375 171.066406 C 118.054688 171.410156 117.449219 171.671875 116.667969 171.867188 L 116.824219 171.164062 C 117.199219 171.007812 117.578125 170.808594 117.957031 170.558594 C 118.332031 170.316406 118.613281 170.101562 118.796875 169.914062 C 118.914062 169.796875 119.023438 169.660156 119.128906 169.503906 L 119.578125 169.503906 L 118.269531 175.792969 Z M 117.488281 175.792969 "/>
<path style="fill-rule:nonzero;fill:rgb(69.803922%,85.098039%,100%);fill-opacity:1;stroke-width:1;stroke-linecap:round;stroke-linejoin:round;stroke:rgb(0%,0%,0%);stroke-opacity:1;stroke-miterlimit:10;" d="M 176.890625 139.234375 C 181.871875 144.215625 181.871875 152.284375 176.890625 157.265625 C 171.909375 162.246875 163.840625 162.246875 158.859375 157.265625 C 153.878125 152.284375 153.878125 144.215625 158.859375 139.234375 C 163.840625 134.253125 171.909375 134.253125 176.890625 139.234375 " transform="matrix(1.25,0,0,1.25,-28.75,-15)"/>
<path style=" stroke:none;fill-rule:nonzero;fill:rgb(0%,0%,0%);fill-opacity:1;" d="M 175.828125 173.292969 L 178.367188 170.324219 L 176.921875 167.453125 L 178.015625 167.453125 L 178.503906 168.488281 C 178.683594 168.878906 178.847656 169.261719 178.992188 169.621094 L 180.691406 167.453125 L 181.902344 167.453125 L 179.441406 170.402344 L 180.925781 173.292969 L 179.8125 173.292969 L 179.246094 172.101562 C 179.113281 171.859375 178.972656 171.546875 178.816406 171.164062 L 177.078125 173.292969 Z M 175.828125 173.292969 "/>
<path style=" stroke:none;fill-rule:nonzero;fill:rgb(0%,0%,0%);fill-opacity:1;" d="M 181.980469 175.792969 C 182.058594 175.417969 182.167969 175.105469 182.3125 174.855469 C 182.453125 174.613281 182.644531 174.378906 182.878906 174.152344 C 183.113281 173.917969 183.5625 173.539062 184.226562 173 C 184.628906 172.679688 184.910156 172.433594 185.066406 172.277344 C 185.273438 172.058594 185.421875 171.84375 185.515625 171.632812 C 185.578125 171.492188 185.613281 171.335938 185.613281 171.164062 C 185.613281 170.882812 185.507812 170.636719 185.300781 170.441406 C 185.105469 170.238281 184.855469 170.128906 184.558594 170.128906 C 184.269531 170.128906 184.015625 170.238281 183.796875 170.441406 C 183.574219 170.636719 183.417969 170.964844 183.328125 171.417969 L 182.566406 171.300781 C 182.644531 170.746094 182.859375 170.304688 183.210938 169.992188 C 183.574219 169.671875 184.023438 169.503906 184.558594 169.503906 C 184.910156 169.503906 185.226562 169.582031 185.515625 169.738281 C 185.800781 169.886719 186.015625 170.089844 186.160156 170.363281 C 186.316406 170.628906 186.394531 170.902344 186.394531 171.183594 C 186.394531 171.605469 186.242188 172 185.945312 172.375 C 185.761719 172.625 185.226562 173.097656 184.34375 173.800781 C 183.953125 174.105469 183.664062 174.347656 183.484375 174.542969 C 183.300781 174.738281 183.164062 174.925781 183.074219 175.089844 L 185.867188 175.089844 L 185.710938 175.792969 Z M 181.980469 175.792969 "/>
<path style="fill-rule:nonzero;fill:rgb(40%,74.901961%,100%);fill-opacity:1;stroke-width:1;stroke-linecap:round;stroke-linejoin:round;stroke:rgb(0%,0%,0%);stroke-opacity:1;stroke-miterlimit:10;" d="M 157.015625 78.234375 C 161.996875 83.215625 161.996875 91.284375 157.015625 96.265625 C 152.034375 101.246875 143.965625 101.246875 138.984375 96.265625 C 134.003125 91.284375 134.003125 83.215625 138.984375 78.234375 C 143.965625 73.253125 152.034375 73.253125 157.015625 78.234375 " transform="matrix(1.25,0,0,1.25,-28.75,-15)"/>
<path style=" stroke:none;fill-rule:nonzero;fill:rgb(0%,0%,0%);fill-opacity:1;" d="M 151.058594 97.042969 L 152.738281 88.996094 L 153.734375 88.996094 L 153.089844 92.082031 C 153.464844 91.722656 153.8125 91.46875 154.125 91.320312 C 154.449219 91.164062 154.773438 91.085938 155.101562 91.085938 C 155.59375 91.085938 155.972656 91.21875 156.234375 91.476562 C 156.507812 91.726562 156.644531 92.058594 156.644531 92.472656 C 156.644531 92.667969 156.585938 93.050781 156.46875 93.605469 L 155.746094 97.042969 L 154.75 97.042969 L 155.492188 93.507812 C 155.59375 93 155.648438 92.683594 155.648438 92.550781 C 155.648438 92.355469 155.582031 92.199219 155.453125 92.082031 C 155.320312 91.957031 155.132812 91.886719 154.886719 91.886719 C 154.519531 91.886719 154.175781 91.984375 153.851562 92.179688 C 153.523438 92.367188 153.269531 92.625 153.089844 92.960938 C 152.90625 93.289062 152.738281 93.816406 152.582031 94.542969 L 152.054688 97.042969 Z M 151.058594 97.042969 "/>
<path style=" stroke:none;fill-rule:nonzero;fill:rgb(0%,0%,0%);fill-opacity:1;" d="M 157.453125 99.542969 C 157.53125 99.167969 157.636719 98.855469 157.785156 98.605469 C 157.925781 98.363281 158.117188 98.128906 158.351562 97.902344 C 158.585938 97.667969 159.035156 97.289062 159.699219 96.75 C 160.097656 96.429688 160.382812 96.183594 160.539062 96.027344 C 160.742188 95.808594 160.894531 95.59375 160.988281 95.382812 C 161.050781 95.242188 161.085938 95.085938 161.085938 94.914062 C 161.085938 94.632812 160.976562 94.386719 160.773438 94.191406 C 160.578125 93.988281 160.328125 93.878906 160.03125 93.878906 C 159.742188 93.878906 159.488281 93.988281 159.269531 94.191406 C 159.042969 94.386719 158.886719 94.714844 158.800781 95.167969 L 158.039062 95.050781 C 158.117188 94.496094 158.332031 94.054688 158.683594 93.742188 C 159.042969 93.421875 159.492188 93.253906 160.03125 93.253906 C 160.382812 93.253906 160.699219 93.332031 160.988281 93.488281 C 161.269531 93.636719 161.484375 93.839844 161.632812 94.113281 C 161.789062 94.378906 161.867188 94.652344 161.867188 94.933594 C 161.867188 95.355469 161.714844 95.75 161.417969 96.125 C 161.230469 96.375 160.699219 96.847656 159.816406 97.550781 C 159.425781 97.855469 159.136719 98.097656 158.957031 98.292969 C 158.769531 98.488281 158.632812 98.675781 158.546875 98.839844 L 161.339844 98.839844 L 161.183594 99.542969 Z M 157.453125 99.542969 "/>
<path style=" stroke:none;fill-rule:nonzero;fill:rgb(0%,0%,0%);fill-opacity:1;" d="M 13.539062 172.941406 L 13.539062 164.894531 L 14.59375 164.894531 L 14.59375 172.941406 Z M 13.539062 172.941406 "/>
<path style=" stroke:none;fill-rule:nonzero;fill:rgb(0%,0%,0%);fill-opacity:1;" d="M 16.351562 172.941406 L 16.351562 167.101562 L 17.25 167.101562 L 17.25 167.941406 C 17.664062 167.304688 18.285156 166.984375 19.105469 166.984375 C 19.457031 166.984375 19.773438 167.050781 20.0625 167.179688 C 20.359375 167.296875 20.582031 167.460938 20.726562 167.667969 C 20.867188 167.863281 20.972656 168.105469 21.039062 168.390625 C 21.078125 168.574219 21.097656 168.894531 21.097656 169.347656 L 21.097656 172.941406 L 20.101562 172.941406 L 20.101562 169.386719 C 20.101562 168.984375 20.0625 168.683594 19.984375 168.488281 C 19.90625 168.292969 19.769531 168.136719 19.574219 168.019531 C 19.378906 167.890625 19.148438 167.824219 18.890625 167.824219 C 18.472656 167.824219 18.109375 167.960938 17.796875 168.234375 C 17.496094 168.496094 17.347656 169.003906 17.347656 169.757812 L 17.347656 172.941406 Z M 16.351562 172.941406 "/>
<path style=" stroke:none;fill-rule:nonzero;fill:rgb(0%,0%,0%);fill-opacity:1;" d="M 22.609375 175.167969 L 22.609375 167.101562 L 23.507812 167.101562 L 23.507812 167.863281 C 23.710938 167.566406 23.945312 167.34375 24.210938 167.199219 C 24.484375 167.058594 24.816406 166.984375 25.207031 166.984375 C 25.699219 166.984375 26.132812 167.117188 26.515625 167.375 C 26.890625 167.625 27.179688 167.980469 27.375 168.449219 C 27.570312 168.917969 27.667969 169.425781 27.667969 169.972656 C 27.667969 170.574219 27.554688 171.113281 27.335938 171.59375 C 27.125 172.078125 26.816406 172.449219 26.417969 172.707031 C 26.011719 172.949219 25.582031 173.078125 25.128906 173.078125 C 24.800781 173.078125 24.507812 173.003906 24.25 172.863281 C 23.984375 172.722656 23.769531 172.546875 23.605469 172.335938 L 23.605469 175.167969 Z M 23.507812 170.050781 C 23.507812 170.808594 23.652344 171.367188 23.957031 171.730469 C 24.269531 172.082031 24.640625 172.257812 25.070312 172.257812 C 25.5 172.257812 25.871094 172.078125 26.183594 171.710938 C 26.503906 171.335938 26.671875 170.753906 26.671875 169.972656 C 26.671875 169.230469 26.515625 168.679688 26.203125 168.3125 C 25.898438 167.9375 25.539062 167.746094 25.109375 167.746094 C 24.6875 167.746094 24.316406 167.949219 23.996094 168.351562 C 23.667969 168.742188 23.507812 169.308594 23.507812 170.050781 Z M 23.507812 170.050781 "/>
<path style=" stroke:none;fill-rule:nonzero;fill:rgb(0%,0%,0%);fill-opacity:1;" d="M 32.695312 172.941406 L 32.695312 172.082031 C 32.234375 172.746094 31.621094 173.078125 30.839844 173.078125 C 30.496094 173.078125 30.179688 173.007812 29.882812 172.882812 C 29.578125 172.742188 29.355469 172.570312 29.199219 172.375 C 29.050781 172.179688 28.953125 171.941406 28.90625 171.652344 C 28.867188 171.457031 28.847656 171.144531 28.847656 170.714844 L 28.847656 167.101562 L 29.824219 167.101562 L 29.824219 170.34375 C 29.824219 170.867188 29.847656 171.210938 29.902344 171.378906 C 29.949219 171.640625 30.078125 171.847656 30.273438 172.003906 C 30.476562 172.148438 30.730469 172.21875 31.035156 172.21875 C 31.332031 172.21875 31.609375 172.148438 31.875 172.003906 C 32.132812 171.847656 32.3125 171.640625 32.421875 171.378906 C 32.523438 171.121094 32.578125 170.734375 32.578125 170.226562 L 32.578125 167.101562 L 33.574219 167.101562 L 33.574219 172.941406 Z M 32.695312 172.941406 "/>
<path style=" stroke:none;fill-rule:nonzero;fill:rgb(0%,0%,0%);fill-opacity:1;" d="M 37.292969 172.0625 L 37.429688 172.921875 C 37.140625 172.984375 36.890625 173.019531 36.6875 173.019531 C 36.320312 173.019531 36.042969 172.960938 35.847656 172.84375 C 35.652344 172.726562 35.503906 172.578125 35.417969 172.394531 C 35.339844 172.214844 35.300781 171.828125 35.300781 171.242188 L 35.300781 167.882812 L 34.578125 167.882812 L 34.578125 167.101562 L 35.300781 167.101562 L 35.300781 165.65625 L 36.296875 165.070312 L 36.296875 167.101562 L 37.292969 167.101562 L 37.292969 167.882812 L 36.296875 167.882812 L 36.296875 171.28125 C 36.296875 171.570312 36.304688 171.75 36.335938 171.828125 C 36.375 171.90625 36.433594 171.972656 36.511719 172.023438 C 36.589844 172.078125 36.695312 172.101562 36.84375 172.101562 C 36.960938 172.101562 37.105469 172.089844 37.292969 172.0625 Z M 37.292969 172.0625 "/>
<path style=" stroke:none;fill-rule:nonzero;fill:rgb(0%,0%,0%);fill-opacity:1;" d="M 41.355469 172.941406 L 41.355469 164.894531 L 42.332031 164.894531 L 42.332031 172.941406 Z M 41.355469 172.941406 "/>
<path style=" stroke:none;fill-rule:nonzero;fill:rgb(0%,0%,0%);fill-opacity:1;" d="M 47.683594 172.21875 C 47.316406 172.53125 46.964844 172.753906 46.628906 172.882812 C 46.285156 173.007812 45.925781 173.078125 45.535156 173.078125 C 44.894531 173.078125 44.402344 172.921875 44.050781 172.609375 C 43.707031 172.296875 43.542969 171.894531 43.542969 171.398438 C 43.542969 171.113281 43.605469 170.851562 43.738281 170.617188 C 43.863281 170.382812 44.035156 170.195312 44.246094 170.050781 C 44.449219 169.910156 44.683594 169.796875 44.949219 169.71875 C 45.144531 169.679688 45.4375 169.636719 45.828125 169.582031 C 46.632812 169.492188 47.222656 169.375 47.605469 169.230469 C 47.605469 169.101562 47.605469 169.015625 47.605469 168.976562 C 47.605469 168.574219 47.511719 168.292969 47.332031 168.136719 C 47.066406 167.902344 46.691406 167.785156 46.199219 167.785156 C 45.730469 167.785156 45.382812 167.871094 45.164062 168.039062 C 44.9375 168.195312 44.777344 168.484375 44.675781 168.898438 L 43.71875 168.78125 C 43.796875 168.367188 43.933594 168.035156 44.128906 167.785156 C 44.332031 167.527344 44.625 167.332031 45.007812 167.199219 C 45.398438 167.058594 45.835938 166.984375 46.335938 166.984375 C 46.84375 166.984375 47.242188 167.042969 47.546875 167.160156 C 47.859375 167.277344 48.082031 167.429688 48.230469 167.609375 C 48.386719 167.78125 48.488281 168 48.542969 168.273438 C 48.582031 168.445312 48.601562 168.742188 48.601562 169.171875 L 48.601562 170.5 C 48.601562 171.414062 48.621094 171.992188 48.660156 172.238281 C 48.699219 172.488281 48.78125 172.722656 48.914062 172.941406 L 47.878906 172.941406 C 47.769531 172.734375 47.707031 172.492188 47.683594 172.21875 Z M 47.605469 170.011719 C 47.238281 170.15625 46.695312 170.28125 45.984375 170.382812 C 45.578125 170.449219 45.289062 170.519531 45.125 170.597656 C 44.953125 170.664062 44.820312 170.769531 44.734375 170.910156 C 44.640625 171.054688 44.597656 171.210938 44.597656 171.378906 C 44.597656 171.640625 44.695312 171.863281 44.890625 172.042969 C 45.085938 172.214844 45.378906 172.296875 45.769531 172.296875 C 46.144531 172.296875 46.480469 172.214844 46.785156 172.042969 C 47.082031 171.875 47.300781 171.648438 47.449219 171.359375 C 47.550781 171.140625 47.605469 170.8125 47.605469 170.382812 Z M 47.605469 170.011719 "/>
<path style=" stroke:none;fill-rule:nonzero;fill:rgb(0%,0%,0%);fill-opacity:1;" d="M 50.09375 175.1875 L 49.976562 174.269531 C 50.195312 174.316406 50.386719 174.347656 50.542969 174.347656 C 50.761719 174.347656 50.9375 174.308594 51.070312 174.230469 C 51.195312 174.160156 51.308594 174.0625 51.402344 173.9375 C 51.449219 173.828125 51.546875 173.585938 51.695312 173.195312 C 51.71875 173.140625 51.753906 173.0625 51.792969 172.960938 L 49.566406 167.101562 L 50.640625 167.101562 L 51.851562 170.480469 C 52.007812 170.910156 52.148438 171.359375 52.28125 171.828125 C 52.382812 171.386719 52.515625 170.945312 52.671875 170.5 L 53.921875 167.101562 L 54.917969 167.101562 L 52.691406 173.039062 C 52.457031 173.671875 52.269531 174.117188 52.144531 174.367188 C 51.957031 174.6875 51.757812 174.921875 51.539062 175.070312 C 51.3125 175.226562 51.039062 175.304688 50.71875 175.304688 C 50.53125 175.304688 50.328125 175.265625 50.09375 175.1875 Z M 50.09375 175.1875 "/>
<path style=" stroke:none;fill-rule:nonzero;fill:rgb(0%,0%,0%);fill-opacity:1;" d="M 59.742188 171.066406 L 60.777344 171.183594 C 60.605469 171.785156 60.296875 172.253906 59.859375 172.589844 C 59.429688 172.917969 58.871094 173.078125 58.199219 173.078125 C 57.347656 173.078125 56.675781 172.820312 56.167969 172.296875 C 55.667969 171.765625 55.425781 171.023438 55.425781 170.070312 C 55.425781 169.09375 55.679688 168.339844 56.1875 167.804688 C 56.695312 167.257812 57.347656 166.984375 58.160156 166.984375 C 58.941406 166.984375 59.570312 167.253906 60.054688 167.785156 C 60.546875 168.308594 60.796875 169.050781 60.796875 170.011719 C 60.796875 170.078125 60.796875 170.167969 60.796875 170.285156 L 56.441406 170.285156 C 56.480469 170.925781 56.660156 171.414062 56.988281 171.75 C 57.308594 172.089844 57.71875 172.257812 58.21875 172.257812 C 58.578125 172.257812 58.886719 172.167969 59.136719 171.984375 C 59.394531 171.789062 59.59375 171.484375 59.742188 171.066406 Z M 56.5 169.464844 L 59.761719 169.464844 C 59.722656 168.972656 59.59375 168.601562 59.390625 168.351562 C 59.078125 167.976562 58.667969 167.785156 58.160156 167.785156 C 57.699219 167.785156 57.320312 167.941406 57.007812 168.253906 C 56.703125 168.554688 56.539062 168.957031 56.5 169.464844 Z M 56.5 169.464844 "/>
<path style=" stroke:none;fill-rule:nonzero;fill:rgb(0%,0%,0%);fill-opacity:1;" d="M 61.992188 172.941406 L 61.992188 167.101562 L 62.890625 167.101562 L 62.890625 168 C 63.113281 167.585938 63.320312 167.3125 63.515625 167.179688 C 63.710938 167.050781 63.925781 166.984375 64.160156 166.984375 C 64.484375 166.984375 64.824219 167.089844 65.175781 167.296875 L 64.824219 168.214844 C 64.589844 168.074219 64.347656 168 64.101562 168 C 63.894531 168 63.699219 168.066406 63.515625 168.195312 C 63.347656 168.328125 63.222656 168.507812 63.144531 168.742188 C 63.039062 169.09375 62.988281 169.480469 62.988281 169.894531 L 62.988281 172.941406 Z M 61.992188 172.941406 "/>
<path style=" stroke:none;fill-rule:nonzero;fill:rgb(0%,0%,0%);fill-opacity:1;" d="M 8.066406 97.628906 L 8.066406 89.582031 L 9.140625 89.582031 L 9.140625 92.882812 L 13.320312 92.882812 L 13.320312 89.582031 L 14.394531 89.582031 L 14.394531 97.628906 L 13.320312 97.628906 L 13.320312 93.839844 L 9.140625 93.839844 L 9.140625 97.628906 Z M 8.066406 97.628906 "/>
<path style=" stroke:none;fill-rule:nonzero;fill:rgb(0%,0%,0%);fill-opacity:1;" d="M 16.035156 90.714844 L 16.035156 89.582031 L 17.03125 89.582031 L 17.03125 90.714844 Z M 16.035156 97.628906 L 16.035156 91.789062 L 17.03125 91.789062 L 17.03125 97.628906 Z M 16.035156 97.628906 "/>
<path style=" stroke:none;fill-rule:nonzero;fill:rgb(0%,0%,0%);fill-opacity:1;" d="M 22.324219 97.628906 L 22.324219 96.886719 C 21.945312 97.472656 21.398438 97.765625 20.683594 97.765625 C 20.226562 97.765625 19.804688 97.632812 19.414062 97.375 C 19.023438 97.117188 18.71875 96.757812 18.496094 96.300781 C 18.289062 95.847656 18.183594 95.320312 18.183594 94.71875 C 18.183594 94.132812 18.28125 93.605469 18.476562 93.136719 C 18.671875 92.65625 18.957031 92.292969 19.335938 92.042969 C 19.726562 91.796875 20.164062 91.671875 20.644531 91.671875 C 20.996094 91.671875 21.308594 91.746094 21.582031 91.886719 C 21.855469 92.03125 22.078125 92.226562 22.246094 92.472656 L 22.246094 89.582031 L 23.242188 89.582031 L 23.242188 97.628906 Z M 19.199219 94.71875 C 19.199219 95.460938 19.355469 96.023438 19.667969 96.398438 C 19.980469 96.765625 20.351562 96.945312 20.78125 96.945312 C 21.210938 96.945312 21.574219 96.769531 21.875 96.417969 C 22.1875 96.066406 22.34375 95.527344 22.34375 94.796875 C 22.34375 94.003906 22.1875 93.417969 21.875 93.039062 C 21.5625 92.664062 21.183594 92.472656 20.742188 92.472656 C 20.300781 92.472656 19.929688 92.65625 19.628906 93.019531 C 19.34375 93.386719 19.199219 93.953125 19.199219 94.71875 Z M 19.199219 94.71875 "/>
<path style=" stroke:none;fill-rule:nonzero;fill:rgb(0%,0%,0%);fill-opacity:1;" d="M 28.582031 97.628906 L 28.582031 96.886719 C 28.203125 97.472656 27.65625 97.765625 26.941406 97.765625 C 26.484375 97.765625 26.0625 97.632812 25.671875 97.375 C 25.28125 97.117188 24.972656 96.757812 24.753906 96.300781 C 24.542969 95.847656 24.441406 95.320312 24.441406 94.71875 C 24.441406 94.132812 24.539062 93.605469 24.734375 93.136719 C 24.929688 92.65625 25.214844 92.292969 25.59375 92.042969 C 25.984375 91.796875 26.417969 91.671875 26.902344 91.671875 C 27.253906 91.671875 27.566406 91.746094 27.839844 91.886719 C 28.113281 92.03125 28.332031 92.226562 28.503906 92.472656 L 28.503906 89.582031 L 29.5 89.582031 L 29.5 97.628906 Z M 25.457031 94.71875 C 25.457031 95.460938 25.613281 96.023438 25.925781 96.398438 C 26.238281 96.765625 26.609375 96.945312 27.039062 96.945312 C 27.46875 96.945312 27.832031 96.769531 28.132812 96.417969 C 28.445312 96.066406 28.601562 95.527344 28.601562 94.796875 C 28.601562 94.003906 28.445312 93.417969 28.132812 93.039062 C 27.820312 92.664062 27.441406 92.472656 27 92.472656 C 26.554688 92.472656 26.183594 92.65625 25.886719 93.019531 C 25.597656 93.386719 25.457031 93.953125 25.457031 94.71875 Z M 25.457031 94.71875 "/>
<path style=" stroke:none;fill-rule:nonzero;fill:rgb(0%,0%,0%);fill-opacity:1;" d="M 35.035156 95.753906 L 36.070312 95.871094 C 35.898438 96.472656 35.59375 96.941406 35.152344 97.277344 C 34.722656 97.605469 34.167969 97.765625 33.492188 97.765625 C 32.644531 97.765625 31.96875 97.507812 31.460938 96.984375 C 30.964844 96.453125 30.71875 95.710938 30.71875 94.757812 C 30.71875 93.78125 30.972656 93.027344 31.480469 92.492188 C 31.988281 91.945312 32.644531 91.671875 33.453125 91.671875 C 34.234375 91.671875 34.863281 91.941406 35.347656 92.472656 C 35.839844 92.996094 36.089844 93.738281 36.089844 94.699219 C 36.089844 94.765625 36.089844 94.855469 36.089844 94.972656 L 31.734375 94.972656 C 31.773438 95.613281 31.953125 96.101562 32.28125 96.4375 C 32.605469 96.777344 33.015625 96.945312 33.511719 96.945312 C 33.875 96.945312 34.179688 96.855469 34.429688 96.671875 C 34.6875 96.476562 34.890625 96.171875 35.035156 95.753906 Z M 31.792969 94.152344 L 35.054688 94.152344 C 35.015625 93.660156 34.890625 93.289062 34.683594 93.039062 C 34.371094 92.664062 33.960938 92.472656 33.453125 92.472656 C 32.996094 92.472656 32.613281 92.628906 32.300781 92.941406 C 32 93.242188 31.832031 93.644531 31.792969 94.152344 Z M 31.792969 94.152344 "/>
<path style=" stroke:none;fill-rule:nonzero;fill:rgb(0%,0%,0%);fill-opacity:1;" d="M 37.308594 97.628906 L 37.308594 91.789062 L 38.207031 91.789062 L 38.207031 92.628906 C 38.621094 91.992188 39.242188 91.671875 40.0625 91.671875 C 40.414062 91.671875 40.730469 91.738281 41.019531 91.867188 C 41.316406 91.984375 41.535156 92.148438 41.683594 92.355469 C 41.824219 92.550781 41.925781 92.792969 41.996094 93.078125 C 42.035156 93.261719 42.054688 93.582031 42.054688 94.035156 L 42.054688 97.628906 L 41.058594 97.628906 L 41.058594 94.074219 C 41.058594 93.671875 41.019531 93.371094 40.941406 93.175781 C 40.863281 92.980469 40.726562 92.824219 40.53125 92.707031 C 40.335938 92.578125 40.105469 92.511719 39.847656 92.511719 C 39.425781 92.511719 39.066406 92.648438 38.753906 92.921875 C 38.449219 93.183594 38.304688 93.691406 38.304688 94.445312 L 38.304688 97.628906 Z M 37.308594 97.628906 "/>
<path style=" stroke:none;fill-rule:nonzero;fill:rgb(0%,0%,0%);fill-opacity:1;" d="M 46.671875 97.628906 L 46.671875 89.582031 L 47.648438 89.582031 L 47.648438 97.628906 Z M 46.671875 97.628906 "/>
<path style=" stroke:none;fill-rule:nonzero;fill:rgb(0%,0%,0%);fill-opacity:1;" d="M 53 96.90625 C 52.632812 97.21875 52.28125 97.441406 51.945312 97.570312 C 51.601562 97.695312 51.242188 97.765625 50.851562 97.765625 C 50.210938 97.765625 49.71875 97.609375 49.367188 97.296875 C 49.023438 96.984375 48.859375 96.582031 48.859375 96.085938 C 48.859375 95.800781 48.921875 95.539062 49.054688 95.304688 C 49.179688 95.070312 49.351562 94.882812 49.5625 94.738281 C 49.765625 94.597656 50 94.484375 50.265625 94.40625 C 50.460938 94.367188 50.753906 94.324219 51.144531 94.269531 C 51.949219 94.179688 52.539062 94.0625 52.921875 93.917969 C 52.921875 93.789062 52.921875 93.703125 52.921875 93.664062 C 52.921875 93.261719 52.828125 92.980469 52.648438 92.824219 C 52.382812 92.589844 52.007812 92.472656 51.515625 92.472656 C 51.046875 92.472656 50.699219 92.558594 50.480469 92.726562 C 50.253906 92.882812 50.09375 93.171875 49.992188 93.585938 L 49.035156 93.46875 C 49.113281 93.054688 49.25 92.722656 49.445312 92.472656 C 49.648438 92.214844 49.941406 92.019531 50.324219 91.886719 C 50.714844 91.746094 51.152344 91.671875 51.652344 91.671875 C 52.160156 91.671875 52.558594 91.730469 52.863281 91.847656 C 53.175781 91.964844 53.398438 92.117188 53.546875 92.296875 C 53.703125 92.46875 53.804688 92.6875 53.859375 92.960938 C 53.898438 93.132812 53.917969 93.429688 53.917969 93.859375 L 53.917969 95.1875 C 53.917969 96.101562 53.9375 96.679688 53.976562 96.925781 C 54.015625 97.175781 54.097656 97.410156 54.230469 97.628906 L 53.195312 97.628906 C 53.085938 97.421875 53.023438 97.179688 53 96.90625 Z M 52.921875 94.699219 C 52.554688 94.84375 52.011719 94.96875 51.300781 95.070312 C 50.894531 95.136719 50.605469 95.207031 50.441406 95.285156 C 50.269531 95.351562 50.136719 95.457031 50.050781 95.597656 C 49.957031 95.742188 49.914062 95.898438 49.914062 96.066406 C 49.914062 96.328125 50.011719 96.550781 50.207031 96.730469 C 50.402344 96.902344 50.695312 96.984375 51.085938 96.984375 C 51.460938 96.984375 51.796875 96.902344 52.101562 96.730469 C 52.398438 96.5625 52.617188 96.335938 52.765625 96.046875 C 52.867188 95.828125 52.921875 95.5 52.921875 95.070312 Z M 52.921875 94.699219 "/>
<path style=" stroke:none;fill-rule:nonzero;fill:rgb(0%,0%,0%);fill-opacity:1;" d="M 55.410156 99.875 L 55.292969 98.957031 C 55.511719 99.003906 55.703125 99.035156 55.859375 99.035156 C 56.078125 99.035156 56.253906 98.996094 56.386719 98.917969 C 56.511719 98.847656 56.625 98.75 56.71875 98.625 C 56.765625 98.515625 56.863281 98.273438 57.011719 97.882812 C 57.035156 97.828125 57.070312 97.75 57.109375 97.648438 L 54.882812 91.789062 L 55.957031 91.789062 L 57.167969 95.167969 C 57.324219 95.597656 57.464844 96.046875 57.597656 96.515625 C 57.699219 96.074219 57.832031 95.632812 57.988281 95.1875 L 59.238281 91.789062 L 60.234375 91.789062 L 58.007812 97.726562 C 57.773438 98.359375 57.585938 98.804688 57.460938 99.054688 C 57.273438 99.375 57.074219 99.609375 56.855469 99.757812 C 56.628906 99.914062 56.355469 99.992188 56.035156 99.992188 C 55.847656 99.992188 55.644531 99.953125 55.410156 99.875 Z M 55.410156 99.875 "/>
<path style=" stroke:none;fill-rule:nonzero;fill:rgb(0%,0%,0%);fill-opacity:1;" d="M 65.058594 95.753906 L 66.09375 95.871094 C 65.921875 96.472656 65.613281 96.941406 65.175781 97.277344 C 64.746094 97.605469 64.1875 97.765625 63.515625 97.765625 C 62.664062 97.765625 61.992188 97.507812 61.484375 96.984375 C 60.984375 96.453125 60.742188 95.710938 60.742188 94.757812 C 60.742188 93.78125 60.996094 93.027344 61.503906 92.492188 C 62.011719 91.945312 62.664062 91.671875 63.476562 91.671875 C 64.257812 91.671875 64.886719 91.941406 65.371094 92.472656 C 65.863281 92.996094 66.113281 93.738281 66.113281 94.699219 C 66.113281 94.765625 66.113281 94.855469 66.113281 94.972656 L 61.757812 94.972656 C 61.796875 95.613281 61.976562 96.101562 62.304688 96.4375 C 62.625 96.777344 63.035156 96.945312 63.535156 96.945312 C 63.894531 96.945312 64.203125 96.855469 64.453125 96.671875 C 64.710938 96.476562 64.910156 96.171875 65.058594 95.753906 Z M 61.816406 94.152344 L 65.078125 94.152344 C 65.039062 93.660156 64.910156 93.289062 64.707031 93.039062 C 64.394531 92.664062 63.984375 92.472656 63.476562 92.472656 C 63.015625 92.472656 62.636719 92.628906 62.324219 92.941406 C 62.019531 93.242188 61.855469 93.644531 61.816406 94.152344 Z M 61.816406 94.152344 "/>
<path style=" stroke:none;fill-rule:nonzero;fill:rgb(0%,0%,0%);fill-opacity:1;" d="M 67.308594 97.628906 L 67.308594 91.789062 L 68.207031 91.789062 L 68.207031 92.6875 C 68.429688 92.273438 68.636719 92 68.832031 91.867188 C 69.027344 91.738281 69.242188 91.671875 69.476562 91.671875 C 69.800781 91.671875 70.140625 91.777344 70.492188 91.984375 L 70.140625 92.902344 C 69.90625 92.761719 69.664062 92.6875 69.417969 92.6875 C 69.210938 92.6875 69.015625 92.753906 68.832031 92.882812 C 68.664062 93.015625 68.539062 93.195312 68.460938 93.429688 C 68.355469 93.78125 68.304688 94.167969 68.304688 94.582031 L 68.304688 97.628906 Z M 67.308594 97.628906 "/>
<path style="fill-rule:nonzero;fill:rgb(69.803922%,85.098039%,100%);fill-opacity:1;stroke-width:1;stroke-linecap:round;stroke-linejoin:round;stroke:rgb(0%,0%,0%);stroke-opacity:1;stroke-miterlimit:10;" d="M 229.765625 139.234375 C 234.746875 144.215625 234.746875 152.284375 229.765625 157.265625 C 224.784375 162.246875 216.715625 162.246875 211.734375 157.265625 C 206.753125 152.284375 206.753125 144.215625 211.734375 139.234375 C 216.715625 134.253125 224.784375 134.253125 229.765625 139.234375 " transform="matrix(1.25,0,0,1.25,-28.75,-15)"/>
<path style=" stroke:none;fill-rule:nonzero;fill:rgb(0%,0%,0%);fill-opacity:1;" d="M 241.921875 173.292969 L 244.460938 170.324219 L 243.015625 167.453125 L 244.109375 167.453125 L 244.597656 168.488281 C 244.777344 168.878906 244.941406 169.261719 245.085938 169.621094 L 246.785156 167.453125 L 247.996094 167.453125 L 245.535156 170.402344 L 247.019531 173.292969 L 245.90625 173.292969 L 245.339844 172.101562 C 245.207031 171.859375 245.066406 171.546875 244.910156 171.164062 L 243.171875 173.292969 Z M 241.921875 173.292969 "/>
<path style=" stroke:none;fill-rule:nonzero;fill:rgb(0%,0%,0%);fill-opacity:1;" d="M 248.054688 174.152344 L 248.796875 174.054688 C 248.847656 174.5 248.972656 174.816406 249.167969 175.011719 C 249.363281 175.199219 249.621094 175.285156 249.949219 175.285156 C 250.324219 175.285156 250.652344 175.148438 250.925781 174.875 C 251.210938 174.601562 251.355469 174.289062 251.355469 173.9375 C 251.355469 173.625 251.25 173.371094 251.042969 173.175781 C 250.832031 172.972656 250.554688 172.863281 250.203125 172.863281 C 250.164062 172.863281 250.078125 172.875 249.949219 172.882812 L 250.085938 172.238281 C 250.164062 172.253906 250.234375 172.257812 250.300781 172.257812 C 250.742188 172.257812 251.082031 172.15625 251.316406 171.945312 C 251.550781 171.726562 251.667969 171.457031 251.667969 171.144531 C 251.667969 170.863281 251.570312 170.617188 251.375 170.421875 C 251.179688 170.226562 250.945312 170.128906 250.671875 170.128906 C 250.382812 170.128906 250.128906 170.238281 249.910156 170.441406 C 249.6875 170.636719 249.550781 170.921875 249.5 171.28125 L 248.738281 171.125 C 248.855469 170.609375 249.089844 170.207031 249.441406 169.933594 C 249.804688 169.652344 250.226562 169.503906 250.710938 169.503906 C 251.230469 169.503906 251.648438 169.660156 251.960938 169.972656 C 252.285156 170.285156 252.449219 170.667969 252.449219 171.105469 C 252.449219 171.449219 252.355469 171.742188 252.175781 171.984375 C 252.003906 172.234375 251.75 172.433594 251.414062 172.589844 C 251.648438 172.738281 251.824219 172.914062 251.941406 173.117188 C 252.070312 173.328125 252.136719 173.5625 252.136719 173.820312 C 252.136719 174.382812 251.925781 174.871094 251.511719 175.285156 C 251.09375 175.691406 250.59375 175.890625 250.007812 175.890625 C 249.433594 175.890625 248.972656 175.734375 248.621094 175.421875 C 248.28125 175.109375 248.09375 174.691406 248.054688 174.152344 Z M 248.054688 174.152344 "/>
<path style="fill-rule:nonzero;fill:rgb(69.803922%,85.098039%,100%);fill-opacity:1;stroke-width:1;stroke-linecap:round;stroke-linejoin:round;stroke:rgb(0%,0%,0%);stroke-opacity:1;stroke-miterlimit:10;" d="M 282.640625 138.484375 C 287.621875 143.465625 287.621875 151.534375 282.640625 156.515625 C 277.659375 161.496875 269.590625 161.496875 264.609375 156.515625 C 259.628125 151.534375 259.628125 143.465625 264.609375 138.484375 C 269.590625 133.503125 277.659375 133.503125 282.640625 138.484375 " transform="matrix(1.25,0,0,1.25,-28.75,-15)"/>
<path style=" stroke:none;fill-rule:nonzero;fill:rgb(0%,0%,0%);fill-opacity:1;" d="M 308.015625 172.355469 L 310.554688 169.386719 L 309.109375 166.515625 L 310.203125 166.515625 L 310.691406 167.550781 C 310.871094 167.941406 311.035156 168.324219 311.179688 168.683594 L 312.878906 166.515625 L 314.089844 166.515625 L 311.628906 169.464844 L 313.113281 172.355469 L 312 172.355469 L 311.433594 171.164062 C 311.300781 170.921875 311.160156 170.609375 311.003906 170.226562 L 309.265625 172.355469 Z M 308.015625 172.355469 "/>
<path style=" stroke:none;fill-rule:nonzero;fill:rgb(0%,0%,0%);fill-opacity:1;" d="M 316.277344 174.855469 L 316.609375 173.253906 L 314.050781 173.253906 L 314.226562 172.492188 L 317.722656 168.585938 L 318.367188 168.585938 L 317.527344 172.570312 L 318.40625 172.570312 L 318.269531 173.253906 L 317.390625 173.253906 L 317.039062 174.855469 Z M 316.746094 172.570312 L 317.292969 169.953125 L 314.96875 172.570312 Z M 316.746094 172.570312 "/>
<path style="fill-rule:nonzero;fill:rgb(40%,74.901961%,100%);fill-opacity:1;stroke-width:1;stroke-linecap:round;stroke-linejoin:round;stroke:rgb(0%,0%,0%);stroke-opacity:1;stroke-miterlimit:10;" d="M 248.265625 78.234375 C 253.246875 83.215625 253.246875 91.284375 248.265625 96.265625 C 243.284375 101.246875 235.215625 101.246875 230.234375 96.265625 C 225.253125 91.284375 225.253125 83.215625 230.234375 78.234375 C 235.215625 73.253125 243.284375 73.253125 248.265625 78.234375 " transform="matrix(1.25,0,0,1.25,-28.75,-15)"/>
<path style=" stroke:none;fill-rule:nonzero;fill:rgb(0%,0%,0%);fill-opacity:1;" d="M 265.121094 97.042969 L 266.800781 88.996094 L 267.796875 88.996094 L 267.152344 92.082031 C 267.527344 91.722656 267.875 91.46875 268.1875 91.320312 C 268.511719 91.164062 268.835938 91.085938 269.164062 91.085938 C 269.65625 91.085938 270.035156 91.21875 270.296875 91.476562 C 270.570312 91.726562 270.707031 92.058594 270.707031 92.472656 C 270.707031 92.667969 270.648438 93.050781 270.53125 93.605469 L 269.808594 97.042969 L 268.8125 97.042969 L 269.554688 93.507812 C 269.65625 93 269.710938 92.683594 269.710938 92.550781 C 269.710938 92.355469 269.644531 92.199219 269.515625 92.082031 C 269.382812 91.957031 269.195312 91.886719 268.949219 91.886719 C 268.582031 91.886719 268.238281 91.984375 267.914062 92.179688 C 267.585938 92.367188 267.332031 92.625 267.152344 92.960938 C 266.96875 93.289062 266.800781 93.816406 266.644531 94.542969 L 266.117188 97.042969 Z M 265.121094 97.042969 "/>
<path style=" stroke:none;fill-rule:nonzero;fill:rgb(0%,0%,0%);fill-opacity:1;" d="M 273.625 99.542969 L 273.957031 97.941406 L 271.398438 97.941406 L 271.574219 97.179688 L 275.070312 93.273438 L 275.714844 93.273438 L 274.875 97.257812 L 275.753906 97.257812 L 275.617188 97.941406 L 274.738281 97.941406 L 274.386719 99.542969 Z M 274.09375 97.257812 L 274.640625 94.640625 L 272.316406 97.257812 Z M 274.09375 97.257812 "/>
<path style="fill-rule:nonzero;fill:rgb(40%,74.901961%,100%);fill-opacity:1;stroke-width:1;stroke-linecap:round;stroke-linejoin:round;stroke:rgb(0%,0%,0%);stroke-opacity:1;stroke-miterlimit:10;" d="M 202.640625 78.234375 C 207.621875 83.215625 207.621875 91.284375 202.640625 96.265625 C 197.659375 101.246875 189.590625 101.246875 184.609375 96.265625 C 179.628125 91.284375 179.628125 83.215625 184.609375 78.234375 C 189.590625 73.253125 197.659375 73.253125 202.640625 78.234375 " transform="matrix(1.25,0,0,1.25,-28.75,-15)"/>
<path style=" stroke:none;fill-rule:nonzero;fill:rgb(0%,0%,0%);fill-opacity:1;" d="M 208.089844 97.042969 L 209.769531 88.996094 L 210.765625 88.996094 L 210.121094 92.082031 C 210.496094 91.722656 210.84375 91.46875 211.15625 91.320312 C 211.480469 91.164062 211.804688 91.085938 212.132812 91.085938 C 212.625 91.085938 213.003906 91.21875 213.265625 91.476562 C 213.539062 91.726562 213.675781 92.058594 213.675781 92.472656 C 213.675781 92.667969 213.617188 93.050781 213.5 93.605469 L 212.777344 97.042969 L 211.78125 97.042969 L 212.523438 93.507812 C 212.625 93 212.679688 92.683594 212.679688 92.550781 C 212.679688 92.355469 212.613281 92.199219 212.484375 92.082031 C 212.351562 91.957031 212.164062 91.886719 211.917969 91.886719 C 211.550781 91.886719 211.207031 91.984375 210.882812 92.179688 C 210.554688 92.367188 210.300781 92.625 210.121094 92.960938 C 209.9375 93.289062 209.769531 93.816406 209.613281 94.542969 L 209.085938 97.042969 Z M 208.089844 97.042969 "/>
<path style=" stroke:none;fill-rule:nonzero;fill:rgb(0%,0%,0%);fill-opacity:1;" d="M 214.464844 97.902344 L 215.207031 97.804688 C 215.253906 98.25 215.382812 98.566406 215.578125 98.761719 C 215.773438 98.949219 216.03125 99.035156 216.359375 99.035156 C 216.734375 99.035156 217.0625 98.898438 217.335938 98.625 C 217.617188 98.351562 217.765625 98.039062 217.765625 97.6875 C 217.765625 97.375 217.65625 97.121094 217.453125 96.925781 C 217.242188 96.722656 216.964844 96.613281 216.613281 96.613281 C 216.574219 96.613281 216.484375 96.625 216.359375 96.632812 L 216.496094 95.988281 C 216.574219 96.003906 216.640625 96.007812 216.710938 96.007812 C 217.148438 96.007812 217.492188 95.90625 217.726562 95.695312 C 217.960938 95.476562 218.078125 95.207031 218.078125 94.894531 C 218.078125 94.613281 217.980469 94.367188 217.785156 94.171875 C 217.589844 93.976562 217.355469 93.878906 217.082031 93.878906 C 216.792969 93.878906 216.539062 93.988281 216.320312 94.191406 C 216.09375 94.386719 215.957031 94.671875 215.910156 95.03125 L 215.148438 94.875 C 215.265625 94.359375 215.5 93.957031 215.851562 93.683594 C 216.210938 93.402344 216.636719 93.253906 217.121094 93.253906 C 217.636719 93.253906 218.058594 93.410156 218.371094 93.722656 C 218.691406 94.035156 218.859375 94.417969 218.859375 94.855469 C 218.859375 95.199219 218.765625 95.492188 218.585938 95.734375 C 218.414062 95.984375 218.160156 96.183594 217.824219 96.339844 C 218.058594 96.488281 218.234375 96.664062 218.351562 96.867188 C 218.476562 97.078125 218.546875 97.3125 218.546875 97.570312 C 218.546875 98.132812 218.335938 98.621094 217.921875 99.035156 C 217.5 99.441406 217.003906 99.640625 216.417969 99.640625 C 215.839844 99.640625 215.382812 99.484375 215.03125 99.171875 C 214.6875 98.859375 214.503906 98.441406 214.464844 97.902344 Z M 214.464844 97.902344 "/>
<path style="fill-rule:nonzero;fill:rgb(69.803922%,85.098039%,100%);fill-opacity:1;stroke-width:1;stroke-linecap:round;stroke-linejoin:round;stroke:rgb(0%,0%,0%);stroke-opacity:1;stroke-miterlimit:10;" d="M 149.765625 17.234375 C 154.746875 22.215625 154.746875 30.284375 149.765625 35.265625 C 144.784375 40.246875 136.715625 40.246875 131.734375 35.265625 C 126.753125 30.284375 126.753125 22.215625 131.734375 17.234375 C 136.715625 12.253125 144.784375 12.253125 149.765625 17.234375 " transform="matrix(1.25,0,0,1.25,-28.75,-15)"/>
<path style=" stroke:none;fill-rule:nonzero;fill:rgb(0%,0%,0%);fill-opacity:1;" d="M 142.171875 18.585938 C 142.171875 17.445312 142.507812 16.496094 143.1875 15.753906 C 143.734375 15.144531 144.457031 14.835938 145.355469 14.835938 C 146.058594 14.835938 146.625 15.0625 147.054688 15.5 C 147.484375 15.929688 147.699219 16.515625 147.699219 17.257812 C 147.699219 17.9375 147.5625 18.5625 147.289062 19.132812 C 147.015625 19.710938 146.628906 20.148438 146.136719 20.460938 C 145.640625 20.773438 145.113281 20.929688 144.554688 20.929688 C 144.097656 20.929688 143.679688 20.832031 143.304688 20.636719 C 142.9375 20.441406 142.660156 20.167969 142.464844 19.816406 C 142.269531 19.457031 142.171875 19.046875 142.171875 18.585938 Z M 143.167969 18.488281 C 143.167969 19.035156 143.296875 19.457031 143.558594 19.738281 C 143.832031 20.011719 144.167969 20.148438 144.574219 20.148438 C 144.78125 20.148438 144.988281 20.109375 145.199219 20.03125 C 145.40625 19.945312 145.601562 19.8125 145.785156 19.640625 C 145.964844 19.460938 146.117188 19.261719 146.234375 19.035156 C 146.363281 18.816406 146.46875 18.578125 146.546875 18.3125 C 146.664062 17.953125 146.722656 17.601562 146.722656 17.257812 C 146.722656 16.742188 146.585938 16.335938 146.3125 16.046875 C 146.050781 15.75 145.71875 15.597656 145.316406 15.597656 C 145.003906 15.597656 144.714844 15.675781 144.457031 15.832031 C 144.207031 15.980469 143.980469 16.195312 143.773438 16.476562 C 143.5625 16.765625 143.40625 17.097656 143.304688 17.472656 C 143.210938 17.855469 143.167969 18.191406 143.167969 18.488281 Z M 143.167969 18.488281 "/>
<path style=" stroke:none;fill-rule:nonzero;fill:rgb(0%,0%,0%);fill-opacity:1;" d="M 149.992188 23.292969 L 150.988281 18.566406 C 150.558594 18.910156 149.953125 19.171875 149.171875 19.367188 L 149.328125 18.664062 C 149.703125 18.507812 150.078125 18.308594 150.460938 18.058594 C 150.835938 17.816406 151.113281 17.601562 151.300781 17.414062 C 151.417969 17.296875 151.523438 17.160156 151.632812 17.003906 L 152.082031 17.003906 L 150.773438 23.292969 Z M 149.992188 23.292969 "/>
<path style="fill-rule:nonzero;fill:rgb(69.803922%,85.098039%,100%);fill-opacity:1;stroke-width:1;stroke-linecap:round;stroke-linejoin:round;stroke:rgb(0%,0%,0%);stroke-opacity:1;stroke-miterlimit:10;" d="M 202.640625 17.234375 C 207.621875 22.215625 207.621875 30.284375 202.640625 35.265625 C 197.659375 40.246875 189.590625 40.246875 184.609375 35.265625 C 179.628125 30.284375 179.628125 22.215625 184.609375 17.234375 C 189.590625 12.253125 197.659375 12.253125 202.640625 17.234375 " transform="matrix(1.25,0,0,1.25,-28.75,-15)"/>
<path style=" stroke:none;fill-rule:nonzero;fill:rgb(0%,0%,0%);fill-opacity:1;" d="M 208.265625 18.585938 C 208.265625 17.445312 208.601562 16.496094 209.28125 15.753906 C 209.828125 15.144531 210.550781 14.835938 211.449219 14.835938 C 212.152344 14.835938 212.71875 15.0625 213.148438 15.5 C 213.578125 15.929688 213.792969 16.515625 213.792969 17.257812 C 213.792969 17.9375 213.65625 18.5625 213.382812 19.132812 C 213.109375 19.710938 212.722656 20.148438 212.230469 20.460938 C 211.734375 20.773438 211.207031 20.929688 210.648438 20.929688 C 210.191406 20.929688 209.773438 20.832031 209.398438 20.636719 C 209.03125 20.441406 208.753906 20.167969 208.558594 19.816406 C 208.363281 19.457031 208.265625 19.046875 208.265625 18.585938 Z M 209.261719 18.488281 C 209.261719 19.035156 209.390625 19.457031 209.652344 19.738281 C 209.925781 20.011719 210.261719 20.148438 210.667969 20.148438 C 210.875 20.148438 211.082031 20.109375 211.292969 20.03125 C 211.5 19.945312 211.695312 19.8125 211.878906 19.640625 C 212.058594 19.460938 212.210938 19.261719 212.328125 19.035156 C 212.457031 18.816406 212.5625 18.578125 212.640625 18.3125 C 212.757812 17.953125 212.816406 17.601562 212.816406 17.257812 C 212.816406 16.742188 212.679688 16.335938 212.40625 16.046875 C 212.144531 15.75 211.8125 15.597656 211.410156 15.597656 C 211.097656 15.597656 210.808594 15.675781 210.550781 15.832031 C 210.300781 15.980469 210.074219 16.195312 209.867188 16.476562 C 209.65625 16.765625 209.5 17.097656 209.398438 17.472656 C 209.304688 17.855469 209.261719 18.191406 209.261719 18.488281 Z M 209.261719 18.488281 "/>
<path style=" stroke:none;fill-rule:nonzero;fill:rgb(0%,0%,0%);fill-opacity:1;" d="M 214.484375 23.292969 C 214.5625 22.917969 214.667969 22.605469 214.816406 22.355469 C 214.957031 22.113281 215.148438 21.878906 215.382812 21.652344 C 215.617188 21.417969 216.066406 21.039062 216.730469 20.5 C 217.128906 20.179688 217.414062 19.933594 217.570312 19.777344 C 217.773438 19.558594 217.925781 19.34375 218.019531 19.132812 C 218.082031 18.992188 218.117188 18.835938 218.117188 18.664062 C 218.117188 18.382812 218.007812 18.136719 217.804688 17.941406 C 217.609375 17.738281 217.359375 17.628906 217.0625 17.628906 C 216.773438 17.628906 216.519531 17.738281 216.300781 17.941406 C 216.074219 18.136719 215.917969 18.464844 215.832031 18.917969 L 215.070312 18.800781 C 215.148438 18.246094 215.363281 17.804688 215.714844 17.492188 C 216.074219 17.171875 216.523438 17.003906 217.0625 17.003906 C 217.414062 17.003906 217.730469 17.082031 218.019531 17.238281 C 218.300781 17.386719 218.515625 17.589844 218.664062 17.863281 C 218.820312 18.128906 218.898438 18.402344 218.898438 18.683594 C 218.898438 19.105469 218.746094 19.5 218.449219 19.875 C 218.261719 20.125 217.730469 20.597656 216.847656 21.300781 C 216.457031 21.605469 216.167969 21.847656 215.988281 22.042969 C 215.800781 22.238281 215.664062 22.425781 215.578125 22.589844 L 218.371094 22.589844 L 218.214844 23.292969 Z M 214.484375 23.292969 "/>
<path style="fill-rule:nonzero;fill:rgb(69.803922%,85.098039%,100%);fill-opacity:1;stroke-width:1;stroke-linecap:round;stroke-linejoin:round;stroke:rgb(0%,0%,0%);stroke-opacity:1;stroke-miterlimit:10;" d="M 255.515625 16.484375 C 260.496875 21.465625 260.496875 29.534375 255.515625 34.515625 C 250.534375 39.496875 242.465625 39.496875 237.484375 34.515625 C 232.503125 29.534375 232.503125 21.465625 237.484375 16.484375 C 242.465625 11.503125 250.534375 11.503125 255.515625 16.484375 " transform="matrix(1.25,0,0,1.25,-28.75,-15)"/>
<path style=" stroke:none;fill-rule:nonzero;fill:rgb(0%,0%,0%);fill-opacity:1;" d="M 274.359375 17.648438 C 274.359375 16.507812 274.695312 15.558594 275.375 14.816406 C 275.921875 14.207031 276.644531 13.898438 277.542969 13.898438 C 278.246094 13.898438 278.8125 14.125 279.242188 14.5625 C 279.671875 14.992188 279.886719 15.578125 279.886719 16.320312 C 279.886719 17 279.75 17.625 279.476562 18.195312 C 279.203125 18.773438 278.816406 19.210938 278.324219 19.523438 C 277.828125 19.835938 277.300781 19.992188 276.742188 19.992188 C 276.285156 19.992188 275.867188 19.894531 275.492188 19.699219 C 275.125 19.503906 274.847656 19.230469 274.652344 18.878906 C 274.457031 18.519531 274.359375 18.109375 274.359375 17.648438 Z M 275.355469 17.550781 C 275.355469 18.097656 275.484375 18.519531 275.746094 18.800781 C 276.019531 19.074219 276.355469 19.210938 276.761719 19.210938 C 276.96875 19.210938 277.175781 19.171875 277.386719 19.09375 C 277.59375 19.007812 277.789062 18.875 277.972656 18.703125 C 278.152344 18.523438 278.304688 18.324219 278.421875 18.097656 C 278.550781 17.878906 278.65625 17.640625 278.734375 17.375 C 278.851562 17.015625 278.910156 16.664062 278.910156 16.320312 C 278.910156 15.804688 278.773438 15.398438 278.5 15.109375 C 278.238281 14.8125 277.90625 14.660156 277.503906 14.660156 C 277.191406 14.660156 276.902344 14.738281 276.644531 14.894531 C 276.394531 15.042969 276.167969 15.257812 275.960938 15.539062 C 275.75 15.828125 275.59375 16.160156 275.492188 16.535156 C 275.398438 16.917969 275.355469 17.253906 275.355469 17.550781 Z M 275.355469 17.550781 "/>
<path style=" stroke:none;fill-rule:nonzero;fill:rgb(0%,0%,0%);fill-opacity:1;" d="M 280.558594 20.714844 L 281.300781 20.617188 C 281.347656 21.0625 281.476562 21.378906 281.671875 21.574219 C 281.867188 21.761719 282.125 21.847656 282.453125 21.847656 C 282.828125 21.847656 283.15625 21.710938 283.429688 21.4375 C 283.710938 21.164062 283.859375 20.851562 283.859375 20.5 C 283.859375 20.1875 283.75 19.933594 283.546875 19.738281 C 283.335938 19.535156 283.058594 19.425781 282.707031 19.425781 C 282.667969 19.425781 282.578125 19.4375 282.453125 19.445312 L 282.589844 18.800781 C 282.667969 18.816406 282.734375 18.820312 282.804688 18.820312 C 283.242188 18.820312 283.585938 18.71875 283.820312 18.507812 C 284.054688 18.289062 284.171875 18.019531 284.171875 17.707031 C 284.171875 17.425781 284.074219 17.179688 283.878906 16.984375 C 283.683594 16.789062 283.449219 16.691406 283.175781 16.691406 C 282.886719 16.691406 282.632812 16.800781 282.414062 17.003906 C 282.1875 17.199219 282.050781 17.484375 282.003906 17.84375 L 281.242188 17.6875 C 281.359375 17.171875 281.59375 16.769531 281.945312 16.496094 C 282.304688 16.214844 282.730469 16.066406 283.214844 16.066406 C 283.730469 16.066406 284.152344 16.222656 284.464844 16.535156 C 284.785156 16.847656 284.953125 17.230469 284.953125 17.667969 C 284.953125 18.011719 284.859375 18.304688 284.679688 18.546875 C 284.507812 18.796875 284.253906 18.996094 283.917969 19.152344 C 284.152344 19.300781 284.328125 19.476562 284.445312 19.679688 C 284.570312 19.890625 284.640625 20.125 284.640625 20.382812 C 284.640625 20.945312 284.429688 21.433594 284.015625 21.847656 C 283.59375 22.253906 283.097656 22.453125 282.511719 22.453125 C 281.933594 22.453125 281.476562 22.296875 281.125 21.984375 C 280.78125 21.671875 280.597656 21.253906 280.558594 20.714844 Z M 280.558594 20.714844 "/>
<path style="fill-rule:nonzero;fill:rgb(40%,74.901961%,100%);fill-opacity:1;stroke-width:1;stroke-linecap:round;stroke-linejoin:round;stroke:rgb(0%,0%,0%);stroke-opacity:1;stroke-miterlimit:10;" d="M 111.390625 78.234375 C 116.371875 83.215625 116.371875 91.284375 111.390625 96.265625 C 106.409375 101.246875 98.340625 101.246875 93.359375 96.265625 C 88.378125 91.284375 88.378125 83.215625 93.359375 78.234375 C 98.340625 73.253125 106.409375 73.253125 111.390625 78.234375 " transform="matrix(1.25,0,0,1.25,-28.75,-15)"/>
<path style=" stroke:none;fill-rule:nonzero;fill:rgb(0%,0%,0%);fill-opacity:1;" d="M 94.027344 97.042969 L 95.707031 88.996094 L 96.703125 88.996094 L 96.058594 92.082031 C 96.433594 91.722656 96.78125 91.46875 97.09375 91.320312 C 97.417969 91.164062 97.742188 91.085938 98.070312 91.085938 C 98.5625 91.085938 98.941406 91.21875 99.203125 91.476562 C 99.476562 91.726562 99.613281 92.058594 99.613281 92.472656 C 99.613281 92.667969 99.554688 93.050781 99.4375 93.605469 L 98.714844 97.042969 L 97.71875 97.042969 L 98.460938 93.507812 C 98.5625 93 98.617188 92.683594 98.617188 92.550781 C 98.617188 92.355469 98.550781 92.199219 98.421875 92.082031 C 98.289062 91.957031 98.101562 91.886719 97.855469 91.886719 C 97.488281 91.886719 97.144531 91.984375 96.820312 92.179688 C 96.492188 92.367188 96.238281 92.625 96.058594 92.960938 C 95.875 93.289062 95.707031 93.816406 95.550781 94.542969 L 95.023438 97.042969 Z M 94.027344 97.042969 "/>
<path style=" stroke:none;fill-rule:nonzero;fill:rgb(0%,0%,0%);fill-opacity:1;" d="M 102.023438 99.542969 L 103.019531 94.816406 C 102.589844 95.160156 101.984375 95.421875 101.203125 95.617188 L 101.359375 94.914062 C 101.734375 94.757812 102.109375 94.558594 102.492188 94.308594 C 102.867188 94.066406 103.144531 93.851562 103.332031 93.664062 C 103.449219 93.546875 103.554688 93.410156 103.664062 93.253906 L 104.113281 93.253906 L 102.804688 99.542969 Z M 102.023438 99.542969 "/>
<path style="fill-rule:nonzero;fill:rgb(40%,74.901961%,100%);fill-opacity:1;stroke-width:1;stroke-linecap:round;stroke-linejoin:round;stroke:rgb(0%,0%,0%);stroke-opacity:1;stroke-miterlimit:10;" d="M 293.890625 78.234375 C 298.871875 83.215625 298.871875 91.284375 293.890625 96.265625 C 288.909375 101.246875 280.840625 101.246875 275.859375 96.265625 C 270.878125 91.284375 270.878125 83.215625 275.859375 78.234375 C 280.840625 73.253125 288.909375 73.253125 293.890625 78.234375 " transform="matrix(1.25,0,0,1.25,-28.75,-15)"/>
<path style=" stroke:none;fill-rule:nonzero;fill:rgb(0%,0%,0%);fill-opacity:1;" d="M 322.152344 97.042969 L 323.832031 88.996094 L 324.828125 88.996094 L 324.183594 92.082031 C 324.558594 91.722656 324.90625 91.46875 325.21875 91.320312 C 325.542969 91.164062 325.867188 91.085938 326.195312 91.085938 C 326.6875 91.085938 327.066406 91.21875 327.328125 91.476562 C 327.601562 91.726562 327.738281 92.058594 327.738281 92.472656 C 327.738281 92.667969 327.679688 93.050781 327.5625 93.605469 L 326.839844 97.042969 L 325.84375 97.042969 L 326.585938 93.507812 C 326.6875 93 326.742188 92.683594 326.742188 92.550781 C 326.742188 92.355469 326.675781 92.199219 326.546875 92.082031 C 326.414062 91.957031 326.226562 91.886719 325.980469 91.886719 C 325.613281 91.886719 325.269531 91.984375 324.945312 92.179688 C 324.617188 92.367188 324.363281 92.625 324.183594 92.960938 C 324 93.289062 323.832031 93.816406 323.675781 94.542969 L 323.148438 97.042969 Z M 322.152344 97.042969 "/>
<path style=" stroke:none;fill-rule:nonzero;fill:rgb(0%,0%,0%);fill-opacity:1;" d="M 328.644531 97.746094 L 329.445312 97.667969 C 329.429688 97.785156 329.425781 97.859375 329.425781 97.882812 C 329.425781 98.070312 329.46875 98.253906 329.5625 98.449219 C 329.664062 98.636719 329.796875 98.777344 329.953125 98.878906 C 330.117188 98.988281 330.292969 99.035156 330.480469 99.035156 C 330.714844 99.035156 330.953125 98.957031 331.203125 98.800781 C 331.445312 98.636719 331.652344 98.390625 331.808594 98.078125 C 331.964844 97.757812 332.042969 97.433594 332.042969 97.121094 C 332.042969 96.769531 331.933594 96.492188 331.730469 96.28125 C 331.519531 96.078125 331.246094 95.96875 330.910156 95.96875 C 330.683594 95.96875 330.46875 96.027344 330.265625 96.144531 C 330.070312 96.253906 329.882812 96.410156 329.71875 96.613281 L 329.035156 96.574219 L 329.992188 93.371094 L 333.039062 93.371094 L 332.902344 94.074219 L 330.519531 94.074219 L 330.050781 95.675781 C 330.214844 95.550781 330.390625 95.453125 330.578125 95.382812 C 330.773438 95.320312 330.96875 95.285156 331.164062 95.285156 C 331.640625 95.285156 332.03125 95.441406 332.335938 95.753906 C 332.648438 96.066406 332.804688 96.507812 332.804688 97.0625 C 332.804688 97.546875 332.695312 97.992188 332.492188 98.390625 C 332.28125 98.796875 331.988281 99.109375 331.613281 99.328125 C 331.246094 99.539062 330.851562 99.640625 330.421875 99.640625 C 330.070312 99.640625 329.746094 99.5625 329.464844 99.40625 C 329.191406 99.25 328.980469 99.03125 328.839844 98.742188 C 328.707031 98.460938 328.644531 98.171875 328.644531 97.882812 C 328.644531 97.859375 328.644531 97.816406 328.644531 97.746094 Z M 328.644531 97.746094 "/>
<path style=" stroke:none;fill-rule:nonzero;fill:rgb(0%,0%,0%);fill-opacity:1;" d="M 8.65625 16.515625 C 8.65625 15.1875 9.011719 14.148438 9.730469 13.390625 C 10.441406 12.625 11.371094 12.238281 12.503906 12.238281 C 13.246094 12.238281 13.914062 12.421875 14.515625 12.785156 C 15.109375 13.136719 15.570312 13.632812 15.882812 14.269531 C 16.195312 14.910156 16.351562 15.625 16.351562 16.417969 C 16.351562 17.238281 16.183594 17.976562 15.863281 18.625 C 15.535156 19.265625 15.066406 19.753906 14.457031 20.089844 C 13.855469 20.417969 13.207031 20.578125 12.503906 20.578125 C 11.746094 20.578125 11.066406 20.398438 10.472656 20.03125 C 9.871094 19.667969 9.417969 19.167969 9.105469 18.527344 C 8.800781 17.890625 8.65625 17.21875 8.65625 16.515625 Z M 9.75 16.535156 C 9.75 17.511719 10.007812 18.28125 10.53125 18.839844 C 11.046875 19.386719 11.707031 19.660156 12.503906 19.660156 C 13.292969 19.660156 13.953125 19.382812 14.476562 18.820312 C 14.992188 18.261719 15.257812 17.460938 15.257812 16.417969 C 15.257812 15.769531 15.144531 15.203125 14.925781 14.71875 C 14.699219 14.226562 14.378906 13.839844 13.949219 13.566406 C 13.519531 13.292969 13.039062 13.15625 12.523438 13.15625 C 11.765625 13.15625 11.117188 13.417969 10.570312 13.9375 C 10.023438 14.460938 9.75 15.324219 9.75 16.535156 Z M 9.75 16.535156 "/>
<path style=" stroke:none;fill-rule:nonzero;fill:rgb(0%,0%,0%);fill-opacity:1;" d="M 21.429688 20.441406 L 21.429688 19.582031 C 20.96875 20.246094 20.355469 20.578125 19.574219 20.578125 C 19.234375 20.578125 18.914062 20.507812 18.617188 20.382812 C 18.3125 20.242188 18.089844 20.070312 17.933594 19.875 C 17.789062 19.679688 17.6875 19.441406 17.640625 19.152344 C 17.601562 18.957031 17.582031 18.644531 17.582031 18.214844 L 17.582031 14.601562 L 18.558594 14.601562 L 18.558594 17.84375 C 18.558594 18.367188 18.582031 18.710938 18.636719 18.878906 C 18.6875 19.140625 18.8125 19.347656 19.007812 19.503906 C 19.210938 19.648438 19.46875 19.71875 19.769531 19.71875 C 20.066406 19.71875 20.34375 19.648438 20.609375 19.503906 C 20.867188 19.347656 21.046875 19.140625 21.15625 18.878906 C 21.257812 18.621094 21.3125 18.234375 21.3125 17.726562 L 21.3125 14.601562 L 22.308594 14.601562 L 22.308594 20.441406 Z M 21.429688 20.441406 "/>
<path style=" stroke:none;fill-rule:nonzero;fill:rgb(0%,0%,0%);fill-opacity:1;" d="M 26.027344 19.5625 L 26.164062 20.421875 C 25.875 20.484375 25.625 20.519531 25.421875 20.519531 C 25.054688 20.519531 24.777344 20.460938 24.582031 20.34375 C 24.386719 20.226562 24.238281 20.078125 24.152344 19.894531 C 24.074219 19.714844 24.035156 19.328125 24.035156 18.742188 L 24.035156 15.382812 L 23.3125 15.382812 L 23.3125 14.601562 L 24.035156 14.601562 L 24.035156 13.15625 L 25.03125 12.570312 L 25.03125 14.601562 L 26.027344 14.601562 L 26.027344 15.382812 L 25.03125 15.382812 L 25.03125 18.78125 C 25.03125 19.070312 25.039062 19.25 25.070312 19.328125 C 25.109375 19.40625 25.167969 19.472656 25.246094 19.523438 C 25.324219 19.578125 25.429688 19.601562 25.578125 19.601562 C 25.695312 19.601562 25.839844 19.589844 26.027344 19.5625 Z M 26.027344 19.5625 "/>
<path style=" stroke:none;fill-rule:nonzero;fill:rgb(0%,0%,0%);fill-opacity:1;" d="M 26.984375 22.667969 L 26.984375 14.601562 L 27.882812 14.601562 L 27.882812 15.363281 C 28.085938 15.066406 28.320312 14.84375 28.585938 14.699219 C 28.859375 14.558594 29.191406 14.484375 29.582031 14.484375 C 30.074219 14.484375 30.507812 14.617188 30.890625 14.875 C 31.265625 15.125 31.554688 15.480469 31.75 15.949219 C 31.945312 16.417969 32.042969 16.925781 32.042969 17.472656 C 32.042969 18.074219 31.929688 18.613281 31.710938 19.09375 C 31.5 19.578125 31.191406 19.949219 30.792969 20.207031 C 30.386719 20.449219 29.957031 20.578125 29.503906 20.578125 C 29.175781 20.578125 28.882812 20.503906 28.625 20.363281 C 28.359375 20.222656 28.144531 20.046875 27.980469 19.835938 L 27.980469 22.667969 Z M 27.882812 17.550781 C 27.882812 18.308594 28.027344 18.867188 28.332031 19.230469 C 28.644531 19.582031 29.015625 19.757812 29.445312 19.757812 C 29.875 19.757812 30.246094 19.578125 30.558594 19.210938 C 30.878906 18.835938 31.046875 18.253906 31.046875 17.472656 C 31.046875 16.730469 30.890625 16.179688 30.578125 15.8125 C 30.273438 15.4375 29.914062 15.246094 29.484375 15.246094 C 29.0625 15.246094 28.691406 15.449219 28.371094 15.851562 C 28.042969 16.242188 27.882812 16.808594 27.882812 17.550781 Z M 27.882812 17.550781 "/>
<path style=" stroke:none;fill-rule:nonzero;fill:rgb(0%,0%,0%);fill-opacity:1;" d="M 37.070312 20.441406 L 37.070312 19.582031 C 36.609375 20.246094 35.996094 20.578125 35.214844 20.578125 C 34.871094 20.578125 34.554688 20.507812 34.257812 20.382812 C 33.953125 20.242188 33.730469 20.070312 33.574219 19.875 C 33.425781 19.679688 33.328125 19.441406 33.28125 19.152344 C 33.242188 18.957031 33.222656 18.644531 33.222656 18.214844 L 33.222656 14.601562 L 34.199219 14.601562 L 34.199219 17.84375 C 34.199219 18.367188 34.222656 18.710938 34.277344 18.878906 C 34.324219 19.140625 34.453125 19.347656 34.648438 19.503906 C 34.851562 19.648438 35.105469 19.71875 35.410156 19.71875 C 35.707031 19.71875 35.984375 19.648438 36.25 19.503906 C 36.507812 19.347656 36.6875 19.140625 36.796875 18.878906 C 36.898438 18.621094 36.953125 18.234375 36.953125 17.726562 L 36.953125 14.601562 L 37.949219 14.601562 L 37.949219 20.441406 Z M 37.070312 20.441406 "/>
<path style=" stroke:none;fill-rule:nonzero;fill:rgb(0%,0%,0%);fill-opacity:1;" d="M 41.667969 19.5625 L 41.804688 20.421875 C 41.515625 20.484375 41.265625 20.519531 41.0625 20.519531 C 40.695312 20.519531 40.417969 20.460938 40.222656 20.34375 C 40.027344 20.226562 39.878906 20.078125 39.792969 19.894531 C 39.714844 19.714844 39.675781 19.328125 39.675781 18.742188 L 39.675781 15.382812 L 38.953125 15.382812 L 38.953125 14.601562 L 39.675781 14.601562 L 39.675781 13.15625 L 40.671875 12.570312 L 40.671875 14.601562 L 41.667969 14.601562 L 41.667969 15.382812 L 40.671875 15.382812 L 40.671875 18.78125 C 40.671875 19.070312 40.679688 19.25 40.710938 19.328125 C 40.75 19.40625 40.808594 19.472656 40.886719 19.523438 C 40.964844 19.578125 41.070312 19.601562 41.21875 19.601562 C 41.335938 19.601562 41.480469 19.589844 41.667969 19.5625 Z M 41.667969 19.5625 "/>
<path style=" stroke:none;fill-rule:nonzero;fill:rgb(0%,0%,0%);fill-opacity:1;" d="M 45.730469 20.441406 L 45.730469 12.394531 L 46.707031 12.394531 L 46.707031 20.441406 Z M 45.730469 20.441406 "/>
<path style=" stroke:none;fill-rule:nonzero;fill:rgb(0%,0%,0%);fill-opacity:1;" d="M 52.058594 19.71875 C 51.691406 20.03125 51.339844 20.253906 51.003906 20.382812 C 50.660156 20.507812 50.300781 20.578125 49.910156 20.578125 C 49.269531 20.578125 48.777344 20.421875 48.425781 20.109375 C 48.082031 19.796875 47.917969 19.394531 47.917969 18.898438 C 47.917969 18.613281 47.980469 18.351562 48.113281 18.117188 C 48.238281 17.882812 48.410156 17.695312 48.621094 17.550781 C 48.824219 17.410156 49.058594 17.296875 49.324219 17.21875 C 49.519531 17.179688 49.8125 17.136719 50.203125 17.082031 C 51.007812 16.992188 51.597656 16.875 51.980469 16.730469 C 51.980469 16.601562 51.980469 16.515625 51.980469 16.476562 C 51.980469 16.074219 51.886719 15.792969 51.707031 15.636719 C 51.441406 15.402344 51.066406 15.285156 50.574219 15.285156 C 50.105469 15.285156 49.757812 15.371094 49.539062 15.539062 C 49.3125 15.695312 49.152344 15.984375 49.050781 16.398438 L 48.09375 16.28125 C 48.171875 15.867188 48.308594 15.535156 48.503906 15.285156 C 48.707031 15.027344 49 14.832031 49.382812 14.699219 C 49.773438 14.558594 50.210938 14.484375 50.710938 14.484375 C 51.21875 14.484375 51.617188 14.542969 51.921875 14.660156 C 52.234375 14.777344 52.457031 14.929688 52.605469 15.109375 C 52.761719 15.28125 52.863281 15.5 52.917969 15.773438 C 52.957031 15.945312 52.976562 16.242188 52.976562 16.671875 L 52.976562 18 C 52.976562 18.914062 52.996094 19.492188 53.035156 19.738281 C 53.074219 19.988281 53.15625 20.222656 53.289062 20.441406 L 52.253906 20.441406 C 52.144531 20.234375 52.082031 19.992188 52.058594 19.71875 Z M 51.980469 17.511719 C 51.613281 17.65625 51.070312 17.78125 50.359375 17.882812 C 49.953125 17.949219 49.664062 18.019531 49.5 18.097656 C 49.328125 18.164062 49.195312 18.269531 49.109375 18.410156 C 49.015625 18.554688 48.972656 18.710938 48.972656 18.878906 C 48.972656 19.140625 49.070312 19.363281 49.265625 19.542969 C 49.460938 19.714844 49.753906 19.796875 50.144531 19.796875 C 50.519531 19.796875 50.855469 19.714844 51.160156 19.542969 C 51.457031 19.375 51.675781 19.148438 51.824219 18.859375 C 51.925781 18.640625 51.980469 18.3125 51.980469 17.882812 Z M 51.980469 17.511719 "/>
<path style=" stroke:none;fill-rule:nonzero;fill:rgb(0%,0%,0%);fill-opacity:1;" d="M 54.46875 22.6875 L 54.351562 21.769531 C 54.570312 21.816406 54.761719 21.847656 54.917969 21.847656 C 55.136719 21.847656 55.3125 21.808594 55.445312 21.730469 C 55.570312 21.660156 55.683594 21.5625 55.777344 21.4375 C 55.824219 21.328125 55.921875 21.085938 56.070312 20.695312 C 56.09375 20.640625 56.128906 20.5625 56.167969 20.460938 L 53.941406 14.601562 L 55.015625 14.601562 L 56.226562 17.980469 C 56.382812 18.410156 56.523438 18.859375 56.65625 19.328125 C 56.757812 18.886719 56.890625 18.445312 57.046875 18 L 58.296875 14.601562 L 59.292969 14.601562 L 57.066406 20.539062 C 56.832031 21.171875 56.644531 21.617188 56.519531 21.867188 C 56.332031 22.1875 56.132812 22.421875 55.914062 22.570312 C 55.6875 22.726562 55.414062 22.804688 55.09375 22.804688 C 54.90625 22.804688 54.703125 22.765625 54.46875 22.6875 Z M 54.46875 22.6875 "/>
<path style=" stroke:none;fill-rule:nonzero;fill:rgb(0%,0%,0%);fill-opacity:1;" d="M 64.117188 18.566406 L 65.152344 18.683594 C 64.980469 19.285156 64.671875 19.753906 64.234375 20.089844 C 63.804688 20.417969 63.246094 20.578125 62.574219 20.578125 C 61.722656 20.578125 61.050781 20.320312 60.542969 19.796875 C 60.042969 19.265625 59.800781 18.523438 59.800781 17.570312 C 59.800781 16.59375 60.054688 15.839844 60.5625 15.304688 C 61.070312 14.757812 61.722656 14.484375 62.535156 14.484375 C 63.316406 14.484375 63.945312 14.753906 64.429688 15.285156 C 64.921875 15.808594 65.171875 16.550781 65.171875 17.511719 C 65.171875 17.578125 65.171875 17.667969 65.171875 17.785156 L 60.816406 17.785156 C 60.855469 18.425781 61.035156 18.914062 61.363281 19.25 C 61.683594 19.589844 62.09375 19.757812 62.59375 19.757812 C 62.953125 19.757812 63.261719 19.667969 63.511719 19.484375 C 63.769531 19.289062 63.96875 18.984375 64.117188 18.566406 Z M 60.875 16.964844 L 64.136719 16.964844 C 64.097656 16.472656 63.96875 16.101562 63.765625 15.851562 C 63.453125 15.476562 63.042969 15.285156 62.535156 15.285156 C 62.074219 15.285156 61.695312 15.441406 61.382812 15.753906 C 61.078125 16.054688 60.914062 16.457031 60.875 16.964844 Z M 60.875 16.964844 "/>
<path style=" stroke:none;fill-rule:nonzero;fill:rgb(0%,0%,0%);fill-opacity:1;" d="M 66.367188 20.441406 L 66.367188 14.601562 L 67.265625 14.601562 L 67.265625 15.5 C 67.488281 15.085938 67.695312 14.8125 67.890625 14.679688 C 68.085938 14.550781 68.300781 14.484375 68.535156 14.484375 C 68.859375 14.484375 69.199219 14.589844 69.550781 14.796875 L 69.199219 15.714844 C 68.964844 15.574219 68.722656 15.5 68.476562 15.5 C 68.269531 15.5 68.074219 15.566406 67.890625 15.695312 C 67.722656 15.828125 67.597656 16.007812 67.519531 16.242188 C 67.414062 16.59375 67.363281 16.980469 67.363281 17.394531 L 67.363281 20.441406 Z M 66.367188 20.441406 "/>
<path style="fill:none;stroke-width:1;stroke-linecap:round;stroke-linejoin:round;stroke:rgb(0%,0%,0%);stroke-opacity:1;stroke-miterlimit:10;" d="M 109.1625 76.45625 L 130.815625 42.0375 " transform="matrix(1.25,0,0,1.25,-28.75,-15)"/>
<path style="fill:none;stroke-width:1;stroke-linecap:butt;stroke-linejoin:miter;stroke:rgb(0%,0%,0%);stroke-opacity:1;stroke-miterlimit:10;" d="M 132.95 38.653125 L 130.815625 42.0375 M 129.546875 41.2375 L 132.95 38.653125 L 132.0875 42.8375 " transform="matrix(1.25,0,0,1.25,-28.75,-15)"/>
<path style="fill:none;stroke-width:1;stroke-linecap:round;stroke-linejoin:round;stroke:rgb(0%,0%,0%);stroke-opacity:1;stroke-miterlimit:10;" d="M 112.975 80.1625 L 178.11875 36.61875 " transform="matrix(1.25,0,0,1.25,-28.75,-15)"/>
<path style="fill:none;stroke-width:1;stroke-linecap:butt;stroke-linejoin:miter;stroke:rgb(0%,0%,0%);stroke-opacity:1;stroke-miterlimit:10;" d="M 181.44375 34.39375 L 178.11875 36.61875 M 177.284375 35.36875 L 181.44375 34.39375 L 178.953125 37.8625 " transform="matrix(1.25,0,0,1.25,-28.75,-15)"/>
<path style="fill:none;stroke-width:1;stroke-linecap:round;stroke-linejoin:round;stroke:rgb(0%,0%,0%);stroke-opacity:1;stroke-miterlimit:10;" d="M 114.096875 82.225 L 229.35625 32.846875 " transform="matrix(1.25,0,0,1.25,-28.75,-15)"/>
<path style="fill:none;stroke-width:1;stroke-linecap:butt;stroke-linejoin:miter;stroke:rgb(0%,0%,0%);stroke-opacity:1;stroke-miterlimit:10;" d="M 233.03125 31.26875 L 229.35625 32.846875 M 228.7625 31.46875 L 233.03125 31.26875 L 229.94375 34.225 " transform="matrix(1.25,0,0,1.25,-28.75,-15)"/>
<path style="fill:none;stroke-width:1;stroke-linecap:round;stroke-linejoin:round;stroke:rgb(0%,0%,0%);stroke-opacity:1;stroke-miterlimit:10;" d="M 146.496875 74.590625 L 142.953125 44.76875 " transform="matrix(1.25,0,0,1.25,-28.75,-15)"/>
<path style="fill:none;stroke-width:1;stroke-linecap:butt;stroke-linejoin:miter;stroke:rgb(0%,0%,0%);stroke-opacity:1;stroke-miterlimit:10;" d="M 142.48125 40.796875 L 142.953125 44.76875 M 141.4625 44.94375 L 142.48125 40.796875 L 144.440625 44.59375 " transform="matrix(1.25,0,0,1.25,-28.75,-15)"/>
<path style="fill:none;stroke-width:1;stroke-linecap:round;stroke-linejoin:round;stroke:rgb(0%,0%,0%);stroke-opacity:1;stroke-miterlimit:10;" d="M 155.6375 77.0375 L 182.453125 41.1875 " transform="matrix(1.25,0,0,1.25,-28.75,-15)"/>
<path style="fill:none;stroke-width:1;stroke-linecap:butt;stroke-linejoin:miter;stroke:rgb(0%,0%,0%);stroke-opacity:1;stroke-miterlimit:10;" d="M 184.846875 37.984375 L 182.453125 41.1875 M 181.253125 40.2875 L 184.846875 37.984375 L 183.65625 42.0875 " transform="matrix(1.25,0,0,1.25,-28.75,-15)"/>
<path style="fill:none;stroke-width:1;stroke-linecap:round;stroke-linejoin:round;stroke:rgb(0%,0%,0%);stroke-opacity:1;stroke-miterlimit:10;" d="M 158.80625 80.475 L 230.69375 35.40625 " transform="matrix(1.25,0,0,1.25,-28.75,-15)"/>
<path style="fill:none;stroke-width:1;stroke-linecap:butt;stroke-linejoin:miter;stroke:rgb(0%,0%,0%);stroke-opacity:1;stroke-miterlimit:10;" d="M 234.0875 33.28125 L 230.69375 35.40625 M 229.9 34.1375 L 234.0875 33.28125 L 231.49375 36.68125 " transform="matrix(1.25,0,0,1.25,-28.75,-15)"/>
<path style="fill:none;stroke-width:1;stroke-linecap:round;stroke-linejoin:round;stroke:rgb(0%,0%,0%);stroke-opacity:1;stroke-miterlimit:10;" d="M 185.275 77.6125 L 152.965625 40.34375 " transform="matrix(1.25,0,0,1.25,-28.75,-15)"/>
<path style="fill:none;stroke-width:1;stroke-linecap:butt;stroke-linejoin:miter;stroke:rgb(0%,0%,0%);stroke-opacity:1;stroke-miterlimit:10;" d="M 150.346875 37.31875 L 152.965625 40.34375 M 151.83125 41.325 L 150.346875 37.31875 L 154.096875 39.359375 " transform="matrix(1.25,0,0,1.25,-28.75,-15)"/>
<path style="fill:none;stroke-width:1;stroke-linecap:round;stroke-linejoin:round;stroke:rgb(0%,0%,0%);stroke-opacity:1;stroke-miterlimit:10;" d="M 193.625 74.5 L 193.625 44.9 " transform="matrix(1.25,0,0,1.25,-28.75,-15)"/>
<path style="fill:none;stroke-width:1;stroke-linecap:butt;stroke-linejoin:miter;stroke:rgb(0%,0%,0%);stroke-opacity:1;stroke-miterlimit:10;" d="M 193.625 40.9 L 193.625 44.9 M 192.125 44.9 L 193.625 40.9 L 195.125 44.9 " transform="matrix(1.25,0,0,1.25,-28.75,-15)"/>
<path style="fill:none;stroke-width:1;stroke-linecap:round;stroke-linejoin:round;stroke:rgb(0%,0%,0%);stroke-opacity:1;stroke-miterlimit:10;" d="M 201.91875 77.565625 L 234.371875 39.66875 " transform="matrix(1.25,0,0,1.25,-28.75,-15)"/>
<path style="fill:none;stroke-width:1;stroke-linecap:butt;stroke-linejoin:miter;stroke:rgb(0%,0%,0%);stroke-opacity:1;stroke-miterlimit:10;" d="M 236.971875 36.628125 L 234.371875 39.66875 M 233.23125 38.690625 L 236.971875 36.628125 L 235.50625 40.640625 " transform="matrix(1.25,0,0,1.25,-28.75,-15)"/>
<path style="fill:none;stroke-width:1;stroke-linecap:round;stroke-linejoin:round;stroke:rgb(0%,0%,0%);stroke-opacity:1;stroke-miterlimit:10;" d="M 228.40625 80.534375 L 156.609375 36.06875 " transform="matrix(1.25,0,0,1.25,-28.75,-15)"/>
<path style="fill:none;stroke-width:1;stroke-linecap:butt;stroke-linejoin:miter;stroke:rgb(0%,0%,0%);stroke-opacity:1;stroke-miterlimit:10;" d="M 153.20625 33.965625 L 156.609375 36.06875 M 155.81875 37.346875 L 153.20625 33.965625 L 157.4 34.796875 " transform="matrix(1.25,0,0,1.25,-28.75,-15)"/>
<path style="fill:none;stroke-width:1;stroke-linecap:round;stroke-linejoin:round;stroke:rgb(0%,0%,0%);stroke-opacity:1;stroke-miterlimit:10;" d="M 231.6125 77.0375 L 204.796875 41.1875 " transform="matrix(1.25,0,0,1.25,-28.75,-15)"/>
<path style="fill:none;stroke-width:1;stroke-linecap:butt;stroke-linejoin:miter;stroke:rgb(0%,0%,0%);stroke-opacity:1;stroke-miterlimit:10;" d="M 202.403125 37.984375 L 204.796875 41.1875 M 203.59375 42.0875 L 202.403125 37.984375 L 205.996875 40.2875 " transform="matrix(1.25,0,0,1.25,-28.75,-15)"/>
<path style="fill:none;stroke-width:1;stroke-linecap:round;stroke-linejoin:round;stroke:rgb(0%,0%,0%);stroke-opacity:1;stroke-miterlimit:10;" d="M 240.7375 74.5875 L 244.325 44.025 " transform="matrix(1.25,0,0,1.25,-28.75,-15)"/>
<path style="fill:none;stroke-width:1;stroke-linecap:butt;stroke-linejoin:miter;stroke:rgb(0%,0%,0%);stroke-opacity:1;stroke-miterlimit:10;" d="M 244.79375 40.05 L 244.325 44.025 M 242.8375 43.846875 L 244.79375 40.05 L 245.815625 44.2 " transform="matrix(1.25,0,0,1.25,-28.75,-15)"/>
<path style="fill:none;stroke-width:1;stroke-linecap:round;stroke-linejoin:round;stroke:rgb(0%,0%,0%);stroke-opacity:1;stroke-miterlimit:10;" d="M 273.128125 82.278125 L 157.93125 33.51875 " transform="matrix(1.25,0,0,1.25,-28.75,-15)"/>
<path style="fill:none;stroke-width:1;stroke-linecap:butt;stroke-linejoin:miter;stroke:rgb(0%,0%,0%);stroke-opacity:1;stroke-miterlimit:10;" d="M 154.246875 31.9625 L 157.93125 33.51875 M 157.34375 34.903125 L 154.246875 31.9625 L 158.5125 32.140625 " transform="matrix(1.25,0,0,1.25,-28.75,-15)"/>
<path style="fill:none;stroke-width:1;stroke-linecap:round;stroke-linejoin:round;stroke:rgb(0%,0%,0%);stroke-opacity:1;stroke-miterlimit:10;" d="M 274.275 80.1625 L 209.13125 36.61875 " transform="matrix(1.25,0,0,1.25,-28.75,-15)"/>
<path style="fill:none;stroke-width:1;stroke-linecap:butt;stroke-linejoin:miter;stroke:rgb(0%,0%,0%);stroke-opacity:1;stroke-miterlimit:10;" d="M 205.80625 34.39375 L 209.13125 36.61875 M 208.296875 37.8625 L 205.80625 34.39375 L 209.965625 35.36875 " transform="matrix(1.25,0,0,1.25,-28.75,-15)"/>
<path style="fill:none;stroke-width:1;stroke-linecap:round;stroke-linejoin:round;stroke:rgb(0%,0%,0%);stroke-opacity:1;stroke-miterlimit:10;" d="M 278.14375 76.41875 L 256.34375 41.34375 " transform="matrix(1.25,0,0,1.25,-28.75,-15)"/>
<path style="fill:none;stroke-width:1;stroke-linecap:butt;stroke-linejoin:miter;stroke:rgb(0%,0%,0%);stroke-opacity:1;stroke-miterlimit:10;" d="M 254.234375 37.94375 L 256.34375 41.34375 M 255.06875 42.13125 L 254.234375 37.94375 L 257.621875 40.55 " transform="matrix(1.25,0,0,1.25,-28.75,-15)"/>
<path style="fill:none;stroke-width:1;stroke-linecap:round;stroke-linejoin:round;stroke:rgb(0%,0%,0%);stroke-opacity:1;stroke-miterlimit:10;" d="M 112.4125 135.7625 L 106.15625 105.515625 " transform="matrix(1.25,0,0,1.25,-28.75,-15)"/>
<path style="fill:none;stroke-width:1;stroke-linecap:butt;stroke-linejoin:miter;stroke:rgb(0%,0%,0%);stroke-opacity:1;stroke-miterlimit:10;" d="M 105.34375 101.596875 L 106.15625 105.515625 M 104.6875 105.81875 L 105.34375 101.596875 L 107.625 105.2125 " transform="matrix(1.25,0,0,1.25,-28.75,-15)"/>
<path style="fill:none;stroke-width:1;stroke-linecap:round;stroke-linejoin:round;stroke:rgb(0%,0%,0%);stroke-opacity:1;stroke-miterlimit:10;" d="M 121.065625 137.03125 L 139.125 103.65625 " transform="matrix(1.25,0,0,1.25,-28.75,-15)"/>
<path style="fill:none;stroke-width:1;stroke-linecap:butt;stroke-linejoin:miter;stroke:rgb(0%,0%,0%);stroke-opacity:1;stroke-miterlimit:10;" d="M 141.028125 100.1375 L 139.125 103.65625 M 137.80625 102.940625 L 141.028125 100.1375 L 140.44375 104.371875 " transform="matrix(1.25,0,0,1.25,-28.75,-15)"/>
<path style="fill:none;stroke-width:1;stroke-linecap:round;stroke-linejoin:round;stroke:rgb(0%,0%,0%);stroke-opacity:1;stroke-miterlimit:10;" d="M 125.075 140.434375 L 178.890625 98.684375 " transform="matrix(1.25,0,0,1.25,-28.75,-15)"/>
<path style="fill:none;stroke-width:1;stroke-linecap:butt;stroke-linejoin:miter;stroke:rgb(0%,0%,0%);stroke-opacity:1;stroke-miterlimit:10;" d="M 182.05 96.23125 L 178.890625 98.684375 M 177.96875 97.496875 L 182.05 96.23125 L 179.809375 99.86875 " transform="matrix(1.25,0,0,1.25,-28.75,-15)"/>
<path style="fill:none;stroke-width:1;stroke-linecap:round;stroke-linejoin:round;stroke:rgb(0%,0%,0%);stroke-opacity:1;stroke-miterlimit:10;" d="M 126.45 142.628125 L 222.503125 95.46875 " transform="matrix(1.25,0,0,1.25,-28.75,-15)"/>
<path style="fill:none;stroke-width:1;stroke-linecap:butt;stroke-linejoin:miter;stroke:rgb(0%,0%,0%);stroke-opacity:1;stroke-miterlimit:10;" d="M 226.096875 93.70625 L 222.503125 95.46875 M 221.84375 94.125 L 226.096875 93.70625 L 223.16875 96.815625 " transform="matrix(1.25,0,0,1.25,-28.75,-15)"/>
<path style="fill:none;stroke-width:1;stroke-linecap:round;stroke-linejoin:round;stroke:rgb(0%,0%,0%);stroke-opacity:1;stroke-miterlimit:10;" d="M 127.003125 143.940625 L 267.31875 93.55625 " transform="matrix(1.25,0,0,1.25,-28.75,-15)"/>
<path style="fill:none;stroke-width:1;stroke-linecap:butt;stroke-linejoin:miter;stroke:rgb(0%,0%,0%);stroke-opacity:1;stroke-miterlimit:10;" d="M 271.0875 92.203125 L 267.31875 93.55625 M 266.8125 92.140625 L 271.0875 92.203125 L 267.828125 94.965625 " transform="matrix(1.25,0,0,1.25,-28.75,-15)"/>
<path style="fill:none;stroke-width:1;stroke-linecap:round;stroke-linejoin:round;stroke:rgb(0%,0%,0%);stroke-opacity:1;stroke-miterlimit:10;" d="M 158.54375 139.559375 L 116.025 99.9625 " transform="matrix(1.25,0,0,1.25,-28.75,-15)"/>
<path style="fill:none;stroke-width:1;stroke-linecap:butt;stroke-linejoin:miter;stroke:rgb(0%,0%,0%);stroke-opacity:1;stroke-miterlimit:10;" d="M 113.096875 97.234375 L 116.025 99.9625 M 115 101.059375 L 113.096875 97.234375 L 117.046875 98.8625 " transform="matrix(1.25,0,0,1.25,-28.75,-15)"/>
<path style="fill:none;stroke-width:1;stroke-linecap:round;stroke-linejoin:round;stroke:rgb(0%,0%,0%);stroke-opacity:1;stroke-miterlimit:10;" d="M 163.925 136.125 L 153.778125 104.984375 " transform="matrix(1.25,0,0,1.25,-28.75,-15)"/>
<path style="fill:none;stroke-width:1;stroke-linecap:butt;stroke-linejoin:miter;stroke:rgb(0%,0%,0%);stroke-opacity:1;stroke-miterlimit:10;" d="M 152.5375 101.184375 L 153.778125 104.984375 M 152.35 105.45 L 152.5375 101.184375 L 155.203125 104.51875 " transform="matrix(1.25,0,0,1.25,-28.75,-15)"/>
<path style="fill:none;stroke-width:1;stroke-linecap:round;stroke-linejoin:round;stroke:rgb(0%,0%,0%);stroke-opacity:1;stroke-miterlimit:10;" d="M 172.8375 136.5 L 186.371875 104.434375 " transform="matrix(1.25,0,0,1.25,-28.75,-15)"/>
<path style="fill:none;stroke-width:1;stroke-linecap:butt;stroke-linejoin:miter;stroke:rgb(0%,0%,0%);stroke-opacity:1;stroke-miterlimit:10;" d="M 187.925 100.75 L 186.371875 104.434375 M 184.9875 103.85 L 187.925 100.75 L 187.753125 105.01875 " transform="matrix(1.25,0,0,1.25,-28.75,-15)"/>
<path style="fill:none;stroke-width:1;stroke-linecap:round;stroke-linejoin:round;stroke:rgb(0%,0%,0%);stroke-opacity:1;stroke-miterlimit:10;" d="M 177.565625 139.965625 L 225.06875 99.36875 " transform="matrix(1.25,0,0,1.25,-28.75,-15)"/>
<path style="fill:none;stroke-width:1;stroke-linecap:butt;stroke-linejoin:miter;stroke:rgb(0%,0%,0%);stroke-opacity:1;stroke-miterlimit:10;" d="M 228.1125 96.76875 L 225.06875 99.36875 M 224.096875 98.225 L 228.1125 96.76875 L 226.046875 100.50625 " transform="matrix(1.25,0,0,1.25,-28.75,-15)"/>
<path style="fill:none;stroke-width:1;stroke-linecap:round;stroke-linejoin:round;stroke:rgb(0%,0%,0%);stroke-opacity:1;stroke-miterlimit:10;" d="M 179.184375 142.35625 L 268.3375 95.875 " transform="matrix(1.25,0,0,1.25,-28.75,-15)"/>
<path style="fill:none;stroke-width:1;stroke-linecap:butt;stroke-linejoin:miter;stroke:rgb(0%,0%,0%);stroke-opacity:1;stroke-miterlimit:10;" d="M 271.88125 94.025 L 268.3375 95.875 M 267.640625 94.54375 L 271.88125 94.025 L 269.028125 97.203125 " transform="matrix(1.25,0,0,1.25,-28.75,-15)"/>
<path style="fill:none;stroke-width:1;stroke-linecap:round;stroke-linejoin:round;stroke:rgb(0%,0%,0%);stroke-opacity:1;stroke-miterlimit:10;" d="M 209.4125 142.40625 L 118.95625 95.79375 " transform="matrix(1.25,0,0,1.25,-28.75,-15)"/>
<path style="fill:none;stroke-width:1;stroke-linecap:butt;stroke-linejoin:miter;stroke:rgb(0%,0%,0%);stroke-opacity:1;stroke-miterlimit:10;" d="M 115.403125 93.9625 L 118.95625 95.79375 M 118.26875 97.128125 L 115.403125 93.9625 L 119.64375 94.4625 " transform="matrix(1.25,0,0,1.25,-28.75,-15)"/>
<path style="fill:none;stroke-width:1;stroke-linecap:round;stroke-linejoin:round;stroke:rgb(0%,0%,0%);stroke-opacity:1;stroke-miterlimit:10;" d="M 210.98125 140.059375 L 162.29375 99.234375 " transform="matrix(1.25,0,0,1.25,-28.75,-15)"/>
<path style="fill:none;stroke-width:1;stroke-linecap:butt;stroke-linejoin:miter;stroke:rgb(0%,0%,0%);stroke-opacity:1;stroke-miterlimit:10;" d="M 159.225 96.6625 L 162.29375 99.234375 M 161.328125 100.38125 L 159.225 96.6625 L 163.253125 98.08125 " transform="matrix(1.25,0,0,1.25,-28.75,-15)"/>
<path style="fill:none;stroke-width:1;stroke-linecap:round;stroke-linejoin:round;stroke:rgb(0%,0%,0%);stroke-opacity:1;stroke-miterlimit:10;" d="M 215.565625 136.596875 L 201.203125 104.29375 " transform="matrix(1.25,0,0,1.25,-28.75,-15)"/>
<path style="fill:none;stroke-width:1;stroke-linecap:butt;stroke-linejoin:miter;stroke:rgb(0%,0%,0%);stroke-opacity:1;stroke-miterlimit:10;" d="M 199.578125 100.640625 L 201.203125 104.29375 M 199.83125 104.903125 L 199.578125 100.640625 L 202.575 103.684375 " transform="matrix(1.25,0,0,1.25,-28.75,-15)"/>
<path style="fill:none;stroke-width:1;stroke-linecap:round;stroke-linejoin:round;stroke:rgb(0%,0%,0%);stroke-opacity:1;stroke-miterlimit:10;" d="M 224.45 136.046875 L 233.8375 105.1 " transform="matrix(1.25,0,0,1.25,-28.75,-15)"/>
<path style="fill:none;stroke-width:1;stroke-linecap:butt;stroke-linejoin:miter;stroke:rgb(0%,0%,0%);stroke-opacity:1;stroke-miterlimit:10;" d="M 234.996875 101.275 L 233.8375 105.1 M 232.403125 104.6625 L 234.996875 101.275 L 235.275 105.534375 " transform="matrix(1.25,0,0,1.25,-28.75,-15)"/>
<path style="fill:none;stroke-width:1;stroke-linecap:round;stroke-linejoin:round;stroke:rgb(0%,0%,0%);stroke-opacity:1;stroke-miterlimit:10;" d="M 229.9875 139.4625 L 271.3625 100.10625 " transform="matrix(1.25,0,0,1.25,-28.75,-15)"/>
<path style="fill:none;stroke-width:1;stroke-linecap:butt;stroke-linejoin:miter;stroke:rgb(0%,0%,0%);stroke-opacity:1;stroke-miterlimit:10;" d="M 274.2625 97.346875 L 271.3625 100.10625 M 270.328125 99.015625 L 274.2625 97.346875 L 272.39375 101.190625 " transform="matrix(1.25,0,0,1.25,-28.75,-15)"/>
<path style="fill:none;stroke-width:1;stroke-linecap:round;stroke-linejoin:round;stroke:rgb(0%,0%,0%);stroke-opacity:1;stroke-miterlimit:10;" d="M 261.59375 143.265625 L 119.96875 93.440625 " transform="matrix(1.25,0,0,1.25,-28.75,-15)"/>
<path style="fill:none;stroke-width:1;stroke-linecap:butt;stroke-linejoin:miter;stroke:rgb(0%,0%,0%);stroke-opacity:1;stroke-miterlimit:10;" d="M 116.2 92.1125 L 119.96875 93.440625 M 119.471875 94.85625 L 116.2 92.1125 L 120.46875 92.028125 " transform="matrix(1.25,0,0,1.25,-28.75,-15)"/>
<path style="fill:none;stroke-width:1;stroke-linecap:round;stroke-linejoin:round;stroke:rgb(0%,0%,0%);stroke-opacity:1;stroke-miterlimit:10;" d="M 262.125 141.984375 L 164.81875 95.315625 " transform="matrix(1.25,0,0,1.25,-28.75,-15)"/>
<path style="fill:none;stroke-width:1;stroke-linecap:butt;stroke-linejoin:miter;stroke:rgb(0%,0%,0%);stroke-opacity:1;stroke-miterlimit:10;" d="M 161.2125 93.5875 L 164.81875 95.315625 M 164.171875 96.66875 L 161.2125 93.5875 L 165.46875 93.965625 " transform="matrix(1.25,0,0,1.25,-28.75,-15)"/>
<path style="fill:none;stroke-width:1;stroke-linecap:round;stroke-linejoin:round;stroke:rgb(0%,0%,0%);stroke-opacity:1;stroke-miterlimit:10;" d="M 263.4375 139.828125 L 208.525 98.471875 " transform="matrix(1.25,0,0,1.25,-28.75,-15)"/>
<path style="fill:none;stroke-width:1;stroke-linecap:butt;stroke-linejoin:miter;stroke:rgb(0%,0%,0%);stroke-opacity:1;stroke-miterlimit:10;" d="M 205.328125 96.0625 L 208.525 98.471875 M 207.621875 99.66875 L 205.328125 96.0625 L 209.425 97.275 " transform="matrix(1.25,0,0,1.25,-28.75,-15)"/>
<path style="fill:none;stroke-width:1;stroke-linecap:round;stroke-linejoin:round;stroke:rgb(0%,0%,0%);stroke-opacity:1;stroke-miterlimit:10;" d="M 267.30625 136.421875 L 248.49375 103.453125 " transform="matrix(1.25,0,0,1.25,-28.75,-15)"/>
<path style="fill:none;stroke-width:1;stroke-linecap:butt;stroke-linejoin:miter;stroke:rgb(0%,0%,0%);stroke-opacity:1;stroke-miterlimit:10;" d="M 246.5125 99.975 L 248.49375 103.453125 M 247.190625 104.19375 L 246.5125 99.975 L 249.796875 102.70625 " transform="matrix(1.25,0,0,1.25,-28.75,-15)"/>
<path style="fill:none;stroke-width:1;stroke-linecap:round;stroke-linejoin:round;stroke:rgb(0%,0%,0%);stroke-opacity:1;stroke-miterlimit:10;" d="M 275.965625 134.965625 L 281.453125 105.5875 " transform="matrix(1.25,0,0,1.25,-28.75,-15)"/>
<path style="fill:none;stroke-width:1;stroke-linecap:butt;stroke-linejoin:miter;stroke:rgb(0%,0%,0%);stroke-opacity:1;stroke-miterlimit:10;" d="M 282.1875 101.653125 L 281.453125 105.5875 M 279.975 105.309375 L 282.1875 101.653125 L 282.925 105.859375 " transform="matrix(1.25,0,0,1.25,-28.75,-15)"/>
</g>
</svg>
