<?xml version="1.0" encoding="UTF-8"?>
<svg xmlns="http://www.w3.org/2000/svg" xmlns:xlink="http://www.w3.org/1999/xlink" width="344pt" height="110pt" viewBox="0 0 344 110" version="1.1">
<g id="surface1">
<path style="fill-rule:nonzero;fill:rgb(69.803922%,85.098039%,100%);fill-opacity:1;stroke-width:1;stroke-linecap:round;stroke-linejoin:round;stroke:rgb(0%,0%,0%);stroke-opacity:1;stroke-miterlimit:10;" d="M 124.015625 139.234375 C 128.996875 144.215625 128.996875 152.284375 124.015625 157.265625 C 119.034375 162.246875 110.965625 162.246875 105.984375 157.265625 C 101.003125 152.284375 101.003125 144.215625 105.984375 139.234375 C 110.965625 134.253125 119.034375 134.253125 124.015625 139.234375 " transform="matrix(1.25,0,0,1.25,-30,-92.5)"/>
<path style=" stroke:none;fill-rule:nonzero;fill:rgb(0%,0%,0%);fill-opacity:1;" d="M 108.484375 95.792969 L 111.023438 92.824219 L 109.578125 89.953125 L 110.671875 89.953125 L 111.160156 90.988281 C 111.339844 91.378906 111.503906 91.761719 111.648438 92.121094 L 113.347656 89.953125 L 114.558594 89.953125 L 112.097656 92.902344 L 113.582031 95.792969 L 112.46875 95.792969 L 111.902344 94.601562 C 111.769531 94.359375 111.628906 94.046875 111.472656 93.664062 L 109.734375 95.792969 Z M 108.484375 95.792969 "/>
<path style=" stroke:none;fill-rule:nonzero;fill:rgb(0%,0%,0%);fill-opacity:1;" d="M 116.238281 98.292969 L 117.234375 93.566406 C 116.804688 93.910156 116.199219 94.171875 115.417969 94.367188 L 115.574219 93.664062 C 115.949219 93.507812 116.328125 93.308594 116.707031 93.058594 C 117.082031 92.816406 117.363281 92.601562 117.546875 92.414062 C 117.664062 92.296875 117.773438 92.160156 117.878906 92.003906 L 118.328125 92.003906 L 117.019531 98.292969 Z M 116.238281 98.292969 "/>
<path style="fill-rule:nonzero;fill:rgb(69.803922%,85.098039%,100%);fill-opacity:1;stroke-width:1;stroke-linecap:round;stroke-linejoin:round;stroke:rgb(0%,0%,0%);stroke-opacity:1;stroke-miterlimit:10;" d="M 176.890625 139.234375 C 181.871875 144.215625 181.871875 152.284375 176.890625 157.265625 C 171.909375 162.246875 163.840625 162.246875 158.859375 157.265625 C 153.878125 152.284375 153.878125 144.215625 158.859375 139.234375 C 163.840625 134.253125 171.909375 134.253125 176.890625 139.234375 " transform="matrix(1.25,0,0,1.25,-30,-92.5)"/>
<path style=" stroke:none;fill-rule:nonzero;fill:rgb(0%,0%,0%);fill-opacity:1;" d="M 174.578125 95.792969 L 177.117188 92.824219 L 175.671875 89.953125 L 176.765625 89.953125 L 177.253906 90.988281 C 177.433594 91.378906 177.597656 91.761719 177.742188 92.121094 L 179.441406 89.953125 L 180.652344 89.953125 L 178.191406 92.902344 L 179.675781 95.792969 L 178.5625 95.792969 L 177.996094 94.601562 C 177.863281 94.359375 177.722656 94.046875 177.566406 93.664062 L 175.828125 95.792969 Z M 174.578125 95.792969 "/>
<path style=" stroke:none;fill-rule:nonzero;fill:rgb(0%,0%,0%);fill-opacity:1;" d="M 180.730469 98.292969 C 180.808594 97.917969 180.917969 97.605469 181.0625 97.355469 C 181.203125 97.113281 181.394531 96.878906 181.628906 96.652344 C 181.863281 96.417969 182.3125 96.039062 182.976562 95.5 C 183.378906 95.179688 183.660156 94.933594 183.816406 94.777344 C 184.023438 94.558594 184.171875 94.34375 184.265625 94.132812 C 184.328125 93.992188 184.363281 93.835938 184.363281 93.664062 C 184.363281 93.382812 184.257812 93.136719 184.050781 92.941406 C 183.855469 92.738281 183.605469 92.628906 183.308594 92.628906 C 183.019531 92.628906 182.765625 92.738281 182.546875 92.941406 C 182.324219 93.136719 182.167969 93.464844 182.078125 93.917969 L 181.316406 93.800781 C 181.394531 93.246094 181.609375 92.804688 181.960938 92.492188 C 182.324219 92.171875 182.773438 92.003906 183.308594 92.003906 C 183.660156 92.003906 183.976562 92.082031 184.265625 92.238281 C 184.550781 92.386719 184.765625 92.589844 184.910156 92.863281 C 185.066406 93.128906 185.144531 93.402344 185.144531 93.683594 C 185.144531 94.105469 184.992188 94.5 184.695312 94.875 C 184.511719 95.125 183.976562 95.597656 183.09375 96.300781 C 182.703125 96.605469 182.414062 96.847656 182.234375 97.042969 C 182.050781 97.238281 181.914062 97.425781 181.824219 97.589844 L 184.617188 97.589844 L 184.460938 98.292969 Z M 180.730469 98.292969 "/>
<path style="fill-rule:nonzero;fill:rgb(40%,74.901961%,100%);fill-opacity:1;stroke-width:1;stroke-linecap:round;stroke-linejoin:round;stroke:rgb(0%,0%,0%);stroke-opacity:1;stroke-miterlimit:10;" d="M 157.015625 78.234375 C 161.996875 83.215625 161.996875 91.284375 157.015625 96.265625 C 152.034375 101.246875 143.965625 101.246875 138.984375 96.265625 C 134.003125 91.284375 134.003125 83.215625 138.984375 78.234375 C 143.965625 73.253125 152.034375 73.253125 157.015625 78.234375 " transform="matrix(1.25,0,0,1.25,-30,-92.5)"/>
<path style=" stroke:none;fill-rule:nonzero;fill:rgb(0%,0%,0%);fill-opacity:1;" d="M 149.984375 17.335938 C 149.984375 16.195312 150.320312 15.246094 151 14.503906 C 151.546875 13.894531 152.269531 13.585938 153.167969 13.585938 C 153.871094 13.585938 154.4375 13.8125 154.867188 14.25 C 155.296875 14.679688 155.511719 15.265625 155.511719 16.007812 C 155.511719 16.6875 155.375 17.3125 155.101562 17.882812 C 154.828125 18.460938 154.441406 18.898438 153.949219 19.210938 C 153.453125 19.523438 152.925781 19.679688 152.367188 19.679688 C 151.910156 19.679688 151.492188 19.582031 151.117188 19.386719 C 150.75 19.191406 150.472656 18.917969 150.277344 18.566406 C 150.082031 18.207031 149.984375 17.796875 149.984375 17.335938 Z M 150.980469 17.238281 C 150.980469 17.785156 151.109375 18.207031 151.371094 18.488281 C 151.644531 18.761719 151.980469 18.898438 152.386719 18.898438 C 152.59375 18.898438 152.800781 18.859375 153.011719 18.78125 C 153.21875 18.695312 153.414062 18.5625 153.597656 18.390625 C 153.777344 18.210938 153.929688 18.011719 154.046875 17.785156 C 154.175781 17.566406 154.28125 17.328125 154.359375 17.0625 C 154.476562 16.703125 154.535156 16.351562 154.535156 16.007812 C 154.535156 15.492188 154.398438 15.085938 154.125 14.796875 C 153.863281 14.5 153.53125 14.347656 153.128906 14.347656 C 152.816406 14.347656 152.527344 14.425781 152.269531 14.582031 C 152.019531 14.730469 151.792969 14.945312 151.585938 15.226562 C 151.375 15.515625 151.21875 15.847656 151.117188 16.222656 C 151.023438 16.605469 150.980469 16.941406 150.980469 17.238281 Z M 150.980469 17.238281 "/>
<path style=" stroke:none;fill-rule:nonzero;fill:rgb(0%,0%,0%);fill-opacity:1;" d="M 156.203125 22.042969 C 156.28125 21.667969 156.386719 21.355469 156.535156 21.105469 C 156.675781 20.863281 156.867188 20.628906 157.101562 20.402344 C 157.335938 20.167969 157.785156 19.789062 158.449219 19.25 C 158.847656 18.929688 159.132812 18.683594 159.289062 18.527344 C 159.492188 18.308594 159.644531 18.09375 159.738281 17.882812 C 159.800781 17.742188 159.835938 17.585938 159.835938 17.414062 C 159.835938 17.132812 159.726562 16.886719 159.523438 16.691406 C 159.328125 16.488281 159.078125 16.378906 158.78125 16.378906 C 158.492188 16.378906 158.238281 16.488281 158.019531 16.691406 C 157.792969 16.886719 157.636719 17.214844 157.550781 17.667969 L 156.789062 17.550781 C 156.867188 16.996094 157.082031 16.554688 157.433594 16.242188 C 157.792969 15.921875 158.242188 15.753906 158.78125 15.753906 C 159.132812 15.753906 159.449219 15.832031 159.738281 15.988281 C 160.019531 16.136719 160.234375 16.339844 160.382812 16.613281 C 160.539062 16.878906 160.617188 17.152344 160.617188 17.433594 C 160.617188 17.855469 160.464844 18.25 160.167969 18.625 C 159.980469 18.875 159.449219 19.347656 158.566406 20.050781 C 158.175781 20.355469 157.886719 20.597656 157.707031 20.792969 C 157.519531 20.988281 157.382812 21.175781 157.296875 21.339844 L 160.089844 21.339844 L 159.933594 22.042969 Z M 156.203125 22.042969 "/>
<path style=" stroke:none;fill-rule:nonzero;fill:rgb(0%,0%,0%);fill-opacity:1;" d="M 12.289062 95.441406 L 12.289062 87.394531 L 13.34375 87.394531 L 13.34375 95.441406 Z M 12.289062 95.441406 "/>
<path style=" stroke:none;fill-rule:nonzero;fill:rgb(0%,0%,0%);fill-opacity:1;" d="M 15.101562 95.441406 L 15.101562 89.601562 L 16 89.601562 L 16 90.441406 C 16.414062 89.804688 17.035156 89.484375 17.855469 89.484375 C 18.207031 89.484375 18.523438 89.550781 18.8125 89.679688 C 19.109375 89.796875 19.332031 89.960938 19.476562 90.167969 C 19.617188 90.363281 19.722656 90.605469 19.789062 90.890625 C 19.828125 91.074219 19.847656 91.394531 19.847656 91.847656 L 19.847656 95.441406 L 18.851562 95.441406 L 18.851562 91.886719 C 18.851562 91.484375 18.8125 91.183594 18.734375 90.988281 C 18.65625 90.792969 18.519531 90.636719 18.324219 90.519531 C 18.128906 90.390625 17.898438 90.324219 17.640625 90.324219 C 17.222656 90.324219 16.859375 90.460938 16.546875 90.734375 C 16.246094 90.996094 16.097656 91.503906 16.097656 92.257812 L 16.097656 95.441406 Z M 15.101562 95.441406 "/>
<path style=" stroke:none;fill-rule:nonzero;fill:rgb(0%,0%,0%);fill-opacity:1;" d="M 21.359375 97.667969 L 21.359375 89.601562 L 22.257812 89.601562 L 22.257812 90.363281 C 22.460938 90.066406 22.695312 89.84375 22.960938 89.699219 C 23.234375 89.558594 23.566406 89.484375 23.957031 89.484375 C 24.449219 89.484375 24.882812 89.617188 25.265625 89.875 C 25.640625 90.125 25.929688 90.480469 26.125 90.949219 C 26.320312 91.417969 26.417969 91.925781 26.417969 92.472656 C 26.417969 93.074219 26.304688 93.613281 26.085938 94.09375 C 25.875 94.578125 25.566406 94.949219 25.167969 95.207031 C 24.761719 95.449219 24.332031 95.578125 23.878906 95.578125 C 23.550781 95.578125 23.257812 95.503906 23 95.363281 C 22.734375 95.222656 22.519531 95.046875 22.355469 94.835938 L 22.355469 97.667969 Z M 22.257812 92.550781 C 22.257812 93.308594 22.402344 93.867188 22.707031 94.230469 C 23.019531 94.582031 23.390625 94.757812 23.820312 94.757812 C 24.25 94.757812 24.621094 94.578125 24.933594 94.210938 C 25.253906 93.835938 25.421875 93.253906 25.421875 92.472656 C 25.421875 91.730469 25.265625 91.179688 24.953125 90.8125 C 24.648438 90.4375 24.289062 90.246094 23.859375 90.246094 C 23.4375 90.246094 23.066406 90.449219 22.746094 90.851562 C 22.417969 91.242188 22.257812 91.808594 22.257812 92.550781 Z M 22.257812 92.550781 "/>
<path style=" stroke:none;fill-rule:nonzero;fill:rgb(0%,0%,0%);fill-opacity:1;" d="M 31.445312 95.441406 L 31.445312 94.582031 C 30.984375 95.246094 30.371094 95.578125 29.589844 95.578125 C 29.246094 95.578125 28.929688 95.507812 28.632812 95.382812 C 28.328125 95.242188 28.105469 95.070312 27.949219 94.875 C 27.800781 94.679688 27.703125 94.441406 27.65625 94.152344 C 27.617188 93.957031 27.597656 93.644531 27.597656 93.214844 L 27.597656 89.601562 L 28.574219 89.601562 L 28.574219 92.84375 C 28.574219 93.367188 28.597656 93.710938 28.652344 93.878906 C 28.699219 94.140625 28.828125 94.347656 29.023438 94.503906 C 29.226562 94.648438 29.480469 94.71875 29.785156 94.71875 C 30.082031 94.71875 30.359375 94.648438 30.625 94.503906 C 30.882812 94.347656 31.0625 94.140625 31.171875 93.878906 C 31.273438 93.621094 31.328125 93.234375 31.328125 92.726562 L 31.328125 89.601562 L 32.324219 89.601562 L 32.324219 95.441406 Z M 31.445312 95.441406 "/>
<path style=" stroke:none;fill-rule:nonzero;fill:rgb(0%,0%,0%);fill-opacity:1;" d="M 36.042969 94.5625 L 36.179688 95.421875 C 35.890625 95.484375 35.640625 95.519531 35.4375 95.519531 C 35.070312 95.519531 34.792969 95.460938 34.597656 95.34375 C 34.402344 95.226562 34.253906 95.078125 34.167969 94.894531 C 34.089844 94.714844 34.050781 94.328125 34.050781 93.742188 L 34.050781 90.382812 L 33.328125 90.382812 L 33.328125 89.601562 L 34.050781 89.601562 L 34.050781 88.15625 L 35.046875 87.570312 L 35.046875 89.601562 L 36.042969 89.601562 L 36.042969 90.382812 L 35.046875 90.382812 L 35.046875 93.78125 C 35.046875 94.070312 35.054688 94.25 35.085938 94.328125 C 35.125 94.40625 35.183594 94.472656 35.261719 94.523438 C 35.339844 94.578125 35.445312 94.601562 35.59375 94.601562 C 35.710938 94.601562 35.855469 94.589844 36.042969 94.5625 Z M 36.042969 94.5625 "/>
<path style=" stroke:none;fill-rule:nonzero;fill:rgb(0%,0%,0%);fill-opacity:1;" d="M 40.105469 95.441406 L 40.105469 87.394531 L 41.082031 87.394531 L 41.082031 95.441406 Z M 40.105469 95.441406 "/>
<path style=" stroke:none;fill-rule:nonzero;fill:rgb(0%,0%,0%);fill-opacity:1;" d="M 46.433594 94.71875 C 46.066406 95.03125 45.714844 95.253906 45.378906 95.382812 C 45.035156 95.507812 44.675781 95.578125 44.285156 95.578125 C 43.644531 95.578125 43.152344 95.421875 42.800781 95.109375 C 42.457031 94.796875 42.292969 94.394531 42.292969 93.898438 C 42.292969 93.613281 42.355469 93.351562 42.488281 93.117188 C 42.613281 92.882812 42.785156 92.695312 42.996094 92.550781 C 43.199219 92.410156 43.433594 92.296875 43.699219 92.21875 C 43.894531 92.179688 44.1875 92.136719 44.578125 92.082031 C 45.382812 91.992188 45.972656 91.875 46.355469 91.730469 C 46.355469 91.601562 46.355469 91.515625 46.355469 91.476562 C 46.355469 91.074219 46.261719 90.792969 46.082031 90.636719 C 45.816406 90.402344 45.441406 90.285156 44.949219 90.285156 C 44.480469 90.285156 44.132812 90.371094 43.914062 90.539062 C 43.6875 90.695312 43.527344 90.984375 43.425781 91.398438 L 42.46875 91.28125 C 42.546875 90.867188 42.683594 90.535156 42.878906 90.285156 C 43.082031 90.027344 43.375 89.832031 43.757812 89.699219 C 44.148438 89.558594 44.585938 89.484375 45.085938 89.484375 C 45.59375 89.484375 45.992188 89.542969 46.296875 89.660156 C 46.609375 89.777344 46.832031 89.929688 46.980469 90.109375 C 47.136719 90.28125 47.238281 90.5 47.292969 90.773438 C 47.332031 90.945312 47.351562 91.242188 47.351562 91.671875 L 47.351562 93 C 47.351562 93.914062 47.371094 94.492188 47.410156 94.738281 C 47.449219 94.988281 47.53125 95.222656 47.664062 95.441406 L 46.628906 95.441406 C 46.519531 95.234375 46.457031 94.992188 46.433594 94.71875 Z M 46.355469 92.511719 C 45.988281 92.65625 45.445312 92.78125 44.734375 92.882812 C 44.328125 92.949219 44.039062 93.019531 43.875 93.097656 C 43.703125 93.164062 43.570312 93.269531 43.484375 93.410156 C 43.390625 93.554688 43.347656 93.710938 43.347656 93.878906 C 43.347656 94.140625 43.445312 94.363281 43.640625 94.542969 C 43.835938 94.714844 44.128906 94.796875 44.519531 94.796875 C 44.894531 94.796875 45.230469 94.714844 45.535156 94.542969 C 45.832031 94.375 46.050781 94.148438 46.199219 93.859375 C 46.300781 93.640625 46.355469 93.3125 46.355469 92.882812 Z M 46.355469 92.511719 "/>
<path style=" stroke:none;fill-rule:nonzero;fill:rgb(0%,0%,0%);fill-opacity:1;" d="M 48.84375 97.6875 L 48.726562 96.769531 C 48.945312 96.816406 49.136719 96.847656 49.292969 96.847656 C 49.511719 96.847656 49.6875 96.808594 49.820312 96.730469 C 49.945312 96.660156 50.058594 96.5625 50.152344 96.4375 C 50.199219 96.328125 50.296875 96.085938 50.445312 95.695312 C 50.46875 95.640625 50.503906 95.5625 50.542969 95.460938 L 48.316406 89.601562 L 49.390625 89.601562 L 50.601562 92.980469 C 50.757812 93.410156 50.898438 93.859375 51.03125 94.328125 C 51.132812 93.886719 51.265625 93.445312 51.421875 93 L 52.671875 89.601562 L 53.667969 89.601562 L 51.441406 95.539062 C 51.207031 96.171875 51.019531 96.617188 50.894531 96.867188 C 50.707031 97.1875 50.507812 97.421875 50.289062 97.570312 C 50.0625 97.726562 49.789062 97.804688 49.46875 97.804688 C 49.28125 97.804688 49.078125 97.765625 48.84375 97.6875 Z M 48.84375 97.6875 "/>
<path style=" stroke:none;fill-rule:nonzero;fill:rgb(0%,0%,0%);fill-opacity:1;" d="M 58.492188 93.566406 L 59.527344 93.683594 C 59.355469 94.285156 59.046875 94.753906 58.609375 95.089844 C 58.179688 95.417969 57.621094 95.578125 56.949219 95.578125 C 56.097656 95.578125 55.425781 95.320312 54.917969 94.796875 C 54.417969 94.265625 54.175781 93.523438 54.175781 92.570312 C 54.175781 91.59375 54.429688 90.839844 54.9375 90.304688 C 55.445312 89.757812 56.097656 89.484375 56.910156 89.484375 C 57.691406 89.484375 58.320312 89.753906 58.804688 90.285156 C 59.296875 90.808594 59.546875 91.550781 59.546875 92.511719 C 59.546875 92.578125 59.546875 92.667969 59.546875 92.785156 L 55.191406 92.785156 C 55.230469 93.425781 55.410156 93.914062 55.738281 94.25 C 56.058594 94.589844 56.46875 94.757812 56.96875 94.757812 C 57.328125 94.757812 57.636719 94.667969 57.886719 94.484375 C 58.144531 94.289062 58.34375 93.984375 58.492188 93.566406 Z M 55.25 91.964844 L 58.511719 91.964844 C 58.472656 91.472656 58.34375 91.101562 58.140625 90.851562 C 57.828125 90.476562 57.417969 90.285156 56.910156 90.285156 C 56.449219 90.285156 56.070312 90.441406 55.757812 90.753906 C 55.453125 91.054688 55.289062 91.457031 55.25 91.964844 Z M 55.25 91.964844 "/>
<path style=" stroke:none;fill-rule:nonzero;fill:rgb(0%,0%,0%);fill-opacity:1;" d="M 60.742188 95.441406 L 60.742188 89.601562 L 61.640625 89.601562 L 61.640625 90.5 C 61.863281 90.085938 62.070312 89.8125 62.265625 89.679688 C 62.460938 89.550781 62.675781 89.484375 62.910156 89.484375 C 63.234375 89.484375 63.574219 89.589844 63.925781 89.796875 L 63.574219 90.714844 C 63.339844 90.574219 63.097656 90.5 62.851562 90.5 C 62.644531 90.5 62.449219 90.566406 62.265625 90.695312 C 62.097656 90.828125 61.972656 91.007812 61.894531 91.242188 C 61.789062 91.59375 61.738281 91.980469 61.738281 92.394531 L 61.738281 95.441406 Z M 60.742188 95.441406 "/>
<path style=" stroke:none;fill-rule:nonzero;fill:rgb(0%,0%,0%);fill-opacity:1;" d="M 7.40625 16.203125 C 7.40625 14.875 7.761719 13.835938 8.480469 13.078125 C 9.191406 12.3125 10.121094 11.925781 11.253906 11.925781 C 11.996094 11.925781 12.664062 12.109375 13.265625 12.472656 C 13.859375 12.824219 14.320312 13.320312 14.632812 13.957031 C 14.945312 14.597656 15.101562 15.3125 15.101562 16.105469 C 15.101562 16.925781 14.933594 17.664062 14.613281 18.3125 C 14.285156 18.953125 13.816406 19.441406 13.207031 19.777344 C 12.605469 20.105469 11.957031 20.265625 11.253906 20.265625 C 10.496094 20.265625 9.816406 20.085938 9.222656 19.71875 C 8.621094 19.355469 8.167969 18.855469 7.855469 18.214844 C 7.550781 17.578125 7.40625 16.90625 7.40625 16.203125 Z M 8.5 16.222656 C 8.5 17.199219 8.757812 17.96875 9.28125 18.527344 C 9.796875 19.074219 10.457031 19.347656 11.253906 19.347656 C 12.042969 19.347656 12.703125 19.070312 13.226562 18.507812 C 13.742188 17.949219 14.007812 17.148438 14.007812 16.105469 C 14.007812 15.457031 13.894531 14.890625 13.675781 14.40625 C 13.449219 13.914062 13.128906 13.527344 12.699219 13.253906 C 12.269531 12.980469 11.789062 12.84375 11.273438 12.84375 C 10.515625 12.84375 9.867188 13.105469 9.320312 13.625 C 8.773438 14.148438 8.5 15.011719 8.5 16.222656 Z M 8.5 16.222656 "/>
<path style=" stroke:none;fill-rule:nonzero;fill:rgb(0%,0%,0%);fill-opacity:1;" d="M 20.179688 20.128906 L 20.179688 19.269531 C 19.71875 19.933594 19.105469 20.265625 18.324219 20.265625 C 17.984375 20.265625 17.664062 20.195312 17.367188 20.070312 C 17.0625 19.929688 16.839844 19.757812 16.683594 19.5625 C 16.539062 19.367188 16.4375 19.128906 16.390625 18.839844 C 16.351562 18.644531 16.332031 18.332031 16.332031 17.902344 L 16.332031 14.289062 L 17.308594 14.289062 L 17.308594 17.53125 C 17.308594 18.054688 17.332031 18.398438 17.386719 18.566406 C 17.4375 18.828125 17.5625 19.035156 17.757812 19.191406 C 17.960938 19.335938 18.21875 19.40625 18.519531 19.40625 C 18.816406 19.40625 19.09375 19.335938 19.359375 19.191406 C 19.617188 19.035156 19.796875 18.828125 19.90625 18.566406 C 20.007812 18.308594 20.0625 17.921875 20.0625 17.414062 L 20.0625 14.289062 L 21.058594 14.289062 L 21.058594 20.128906 Z M 20.179688 20.128906 "/>
<path style=" stroke:none;fill-rule:nonzero;fill:rgb(0%,0%,0%);fill-opacity:1;" d="M 24.777344 19.25 L 24.914062 20.109375 C 24.625 20.171875 24.375 20.207031 24.171875 20.207031 C 23.804688 20.207031 23.527344 20.148438 23.332031 20.03125 C 23.136719 19.914062 22.988281 19.765625 22.902344 19.582031 C 22.824219 19.402344 22.785156 19.015625 22.785156 18.429688 L 22.785156 15.070312 L 22.0625 15.070312 L 22.0625 14.289062 L 22.785156 14.289062 L 22.785156 12.84375 L 23.78125 12.257812 L 23.78125 14.289062 L 24.777344 14.289062 L 24.777344 15.070312 L 23.78125 15.070312 L 23.78125 18.46875 C 23.78125 18.757812 23.789062 18.9375 23.820312 19.015625 C 23.859375 19.09375 23.917969 19.160156 23.996094 19.210938 C 24.074219 19.265625 24.179688 19.289062 24.328125 19.289062 C 24.445312 19.289062 24.589844 19.277344 24.777344 19.25 Z M 24.777344 19.25 "/>
<path style=" stroke:none;fill-rule:nonzero;fill:rgb(0%,0%,0%);fill-opacity:1;" d="M 25.734375 22.355469 L 25.734375 14.289062 L 26.632812 14.289062 L 26.632812 15.050781 C 26.835938 14.753906 27.070312 14.53125 27.335938 14.386719 C 27.609375 14.246094 27.941406 14.171875 28.332031 14.171875 C 28.824219 14.171875 29.257812 14.304688 29.640625 14.5625 C 30.015625 14.8125 30.304688 15.167969 30.5 15.636719 C 30.695312 16.105469 30.792969 16.613281 30.792969 17.160156 C 30.792969 17.761719 30.679688 18.300781 30.460938 18.78125 C 30.25 19.265625 29.941406 19.636719 29.542969 19.894531 C 29.136719 20.136719 28.707031 20.265625 28.253906 20.265625 C 27.925781 20.265625 27.632812 20.191406 27.375 20.050781 C 27.109375 19.910156 26.894531 19.734375 26.730469 19.523438 L 26.730469 22.355469 Z M 26.632812 17.238281 C 26.632812 17.996094 26.777344 18.554688 27.082031 18.917969 C 27.394531 19.269531 27.765625 19.445312 28.195312 19.445312 C 28.625 19.445312 28.996094 19.265625 29.308594 18.898438 C 29.628906 18.523438 29.796875 17.941406 29.796875 17.160156 C 29.796875 16.417969 29.640625 15.867188 29.328125 15.5 C 29.023438 15.125 28.664062 14.933594 28.234375 14.933594 C 27.8125 14.933594 27.441406 15.136719 27.121094 15.539062 C 26.792969 15.929688 26.632812 16.496094 26.632812 17.238281 Z M 26.632812 17.238281 "/>
<path style=" stroke:none;fill-rule:nonzero;fill:rgb(0%,0%,0%);fill-opacity:1;" d="M 35.820312 20.128906 L 35.820312 19.269531 C 35.359375 19.933594 34.746094 20.265625 33.964844 20.265625 C 33.621094 20.265625 33.304688 20.195312 33.007812 20.070312 C 32.703125 19.929688 32.480469 19.757812 32.324219 19.5625 C 32.175781 19.367188 32.078125 19.128906 32.03125 18.839844 C 31.992188 18.644531 31.972656 18.332031 31.972656 17.902344 L 31.972656 14.289062 L 32.949219 14.289062 L 32.949219 17.53125 C 32.949219 18.054688 32.972656 18.398438 33.027344 18.566406 C 33.074219 18.828125 33.203125 19.035156 33.398438 19.191406 C 33.601562 19.335938 33.855469 19.40625 34.160156 19.40625 C 34.457031 19.40625 34.734375 19.335938 35 19.191406 C 35.257812 19.035156 35.4375 18.828125 35.546875 18.566406 C 35.648438 18.308594 35.703125 17.921875 35.703125 17.414062 L 35.703125 14.289062 L 36.699219 14.289062 L 36.699219 20.128906 Z M 35.820312 20.128906 "/>
<path style=" stroke:none;fill-rule:nonzero;fill:rgb(0%,0%,0%);fill-opacity:1;" d="M 40.417969 19.25 L 40.554688 20.109375 C 40.265625 20.171875 40.015625 20.207031 39.8125 20.207031 C 39.445312 20.207031 39.167969 20.148438 38.972656 20.03125 C 38.777344 19.914062 38.628906 19.765625 38.542969 19.582031 C 38.464844 19.402344 38.425781 19.015625 38.425781 18.429688 L 38.425781 15.070312 L 37.703125 15.070312 L 37.703125 14.289062 L 38.425781 14.289062 L 38.425781 12.84375 L 39.421875 12.257812 L 39.421875 14.289062 L 40.417969 14.289062 L 40.417969 15.070312 L 39.421875 15.070312 L 39.421875 18.46875 C 39.421875 18.757812 39.429688 18.9375 39.460938 19.015625 C 39.5 19.09375 39.558594 19.160156 39.636719 19.210938 C 39.714844 19.265625 39.820312 19.289062 39.96875 19.289062 C 40.085938 19.289062 40.230469 19.277344 40.417969 19.25 Z M 40.417969 19.25 "/>
<path style=" stroke:none;fill-rule:nonzero;fill:rgb(0%,0%,0%);fill-opacity:1;" d="M 44.480469 20.128906 L 44.480469 12.082031 L 45.457031 12.082031 L 45.457031 20.128906 Z M 44.480469 20.128906 "/>
<path style=" stroke:none;fill-rule:nonzero;fill:rgb(0%,0%,0%);fill-opacity:1;" d="M 50.808594 19.40625 C 50.441406 19.71875 50.089844 19.941406 49.753906 20.070312 C 49.410156 20.195312 49.050781 20.265625 48.660156 20.265625 C 48.019531 20.265625 47.527344 20.109375 47.175781 19.796875 C 46.832031 19.484375 46.667969 19.082031 46.667969 18.585938 C 46.667969 18.300781 46.730469 18.039062 46.863281 17.804688 C 46.988281 17.570312 47.160156 17.382812 47.371094 17.238281 C 47.574219 17.097656 47.808594 16.984375 48.074219 16.90625 C 48.269531 16.867188 48.5625 16.824219 48.953125 16.769531 C 49.757812 16.679688 50.347656 16.5625 50.730469 16.417969 C 50.730469 16.289062 50.730469 16.203125 50.730469 16.164062 C 50.730469 15.761719 50.636719 15.480469 50.457031 15.324219 C 50.191406 15.089844 49.816406 14.972656 49.324219 14.972656 C 48.855469 14.972656 48.507812 15.058594 48.289062 15.226562 C 48.0625 15.382812 47.902344 15.671875 47.800781 16.085938 L 46.84375 15.96875 C 46.921875 15.554688 47.058594 15.222656 47.253906 14.972656 C 47.457031 14.714844 47.75 14.519531 48.132812 14.386719 C 48.523438 14.246094 48.960938 14.171875 49.460938 14.171875 C 49.96875 14.171875 50.367188 14.230469 50.671875 14.347656 C 50.984375 14.464844 51.207031 14.617188 51.355469 14.796875 C 51.511719 14.96875 51.613281 15.1875 51.667969 15.460938 C 51.707031 15.632812 51.726562 15.929688 51.726562 16.359375 L 51.726562 17.6875 C 51.726562 18.601562 51.746094 19.179688 51.785156 19.425781 C 51.824219 19.675781 51.90625 19.910156 52.039062 20.128906 L 51.003906 20.128906 C 50.894531 19.921875 50.832031 19.679688 50.808594 19.40625 Z M 50.730469 17.199219 C 50.363281 17.34375 49.820312 17.46875 49.109375 17.570312 C 48.703125 17.636719 48.414062 17.707031 48.25 17.785156 C 48.078125 17.851562 47.945312 17.957031 47.859375 18.097656 C 47.765625 18.242188 47.722656 18.398438 47.722656 18.566406 C 47.722656 18.828125 47.820312 19.050781 48.015625 19.230469 C 48.210938 19.402344 48.503906 19.484375 48.894531 19.484375 C 49.269531 19.484375 49.605469 19.402344 49.910156 19.230469 C 50.207031 19.0625 50.425781 18.835938 50.574219 18.546875 C 50.675781 18.328125 50.730469 18 50.730469 17.570312 Z M 50.730469 17.199219 "/>
<path style=" stroke:none;fill-rule:nonzero;fill:rgb(0%,0%,0%);fill-opacity:1;" d="M 53.21875 22.375 L 53.101562 21.457031 C 53.320312 21.503906 53.511719 21.535156 53.667969 21.535156 C 53.886719 21.535156 54.0625 21.496094 54.195312 21.417969 C 54.320312 21.347656 54.433594 21.25 54.527344 21.125 C 54.574219 21.015625 54.671875 20.773438 54.820312 20.382812 C 54.84375 20.328125 54.878906 20.25 54.917969 20.148438 L 52.691406 14.289062 L 53.765625 14.289062 L 54.976562 17.667969 C 55.132812 18.097656 55.273438 18.546875 55.40625 19.015625 C 55.507812 18.574219 55.640625 18.132812 55.796875 17.6875 L 57.046875 14.289062 L 58.042969 14.289062 L 55.816406 20.226562 C 55.582031 20.859375 55.394531 21.304688 55.269531 21.554688 C 55.082031 21.875 54.882812 22.109375 54.664062 22.257812 C 54.4375 22.414062 54.164062 22.492188 53.84375 22.492188 C 53.65625 22.492188 53.453125 22.453125 53.21875 22.375 Z M 53.21875 22.375 "/>
<path style=" stroke:none;fill-rule:nonzero;fill:rgb(0%,0%,0%);fill-opacity:1;" d="M 62.867188 18.253906 L 63.902344 18.371094 C 63.730469 18.972656 63.421875 19.441406 62.984375 19.777344 C 62.554688 20.105469 61.996094 20.265625 61.324219 20.265625 C 60.472656 20.265625 59.800781 20.007812 59.292969 19.484375 C 58.792969 18.953125 58.550781 18.210938 58.550781 17.257812 C 58.550781 16.28125 58.804688 15.527344 59.3125 14.992188 C 59.820312 14.445312 60.472656 14.171875 61.285156 14.171875 C 62.066406 14.171875 62.695312 14.441406 63.179688 14.972656 C 63.671875 15.496094 63.921875 16.238281 63.921875 17.199219 C 63.921875 17.265625 63.921875 17.355469 63.921875 17.472656 L 59.566406 17.472656 C 59.605469 18.113281 59.785156 18.601562 60.113281 18.9375 C 60.433594 19.277344 60.84375 19.445312 61.34375 19.445312 C 61.703125 19.445312 62.011719 19.355469 62.261719 19.171875 C 62.519531 18.976562 62.71875 18.671875 62.867188 18.253906 Z M 59.625 16.652344 L 62.886719 16.652344 C 62.847656 16.160156 62.71875 15.789062 62.515625 15.539062 C 62.203125 15.164062 61.792969 14.972656 61.285156 14.972656 C 60.824219 14.972656 60.445312 15.128906 60.132812 15.441406 C 59.828125 15.742188 59.664062 16.144531 59.625 16.652344 Z M 59.625 16.652344 "/>
<path style=" stroke:none;fill-rule:nonzero;fill:rgb(0%,0%,0%);fill-opacity:1;" d="M 65.117188 20.128906 L 65.117188 14.289062 L 66.015625 14.289062 L 66.015625 15.1875 C 66.238281 14.773438 66.445312 14.5 66.640625 14.367188 C 66.835938 14.238281 67.050781 14.171875 67.285156 14.171875 C 67.609375 14.171875 67.949219 14.277344 68.300781 14.484375 L 67.949219 15.402344 C 67.714844 15.261719 67.472656 15.1875 67.226562 15.1875 C 67.019531 15.1875 66.824219 15.253906 66.640625 15.382812 C 66.472656 15.515625 66.347656 15.695312 66.269531 15.929688 C 66.164062 16.28125 66.113281 16.667969 66.113281 17.082031 L 66.113281 20.128906 Z M 65.117188 20.128906 "/>
<path style="fill-rule:nonzero;fill:rgb(69.803922%,85.098039%,100%);fill-opacity:1;stroke-width:1;stroke-linecap:round;stroke-linejoin:round;stroke:rgb(0%,0%,0%);stroke-opacity:1;stroke-miterlimit:10;" d="M 229.765625 139.234375 C 234.746875 144.215625 234.746875 152.284375 229.765625 157.265625 C 224.784375 162.246875 216.715625 162.246875 211.734375 157.265625 C 206.753125 152.284375 206.753125 144.215625 211.734375 139.234375 C 216.715625 134.253125 224.784375 134.253125 229.765625 139.234375 " transform="matrix(1.25,0,0,1.25,-30,-92.5)"/>
<path style=" stroke:none;fill-rule:nonzero;fill:rgb(0%,0%,0%);fill-opacity:1;" d="M 240.671875 95.792969 L 243.210938 92.824219 L 241.765625 89.953125 L 242.859375 89.953125 L 243.347656 90.988281 C 243.527344 91.378906 243.691406 91.761719 243.835938 92.121094 L 245.535156 89.953125 L 246.746094 89.953125 L 244.285156 92.902344 L 245.769531 95.792969 L 244.65625 95.792969 L 244.089844 94.601562 C 243.957031 94.359375 243.816406 94.046875 243.660156 93.664062 L 241.921875 95.792969 Z M 240.671875 95.792969 "/>
<path style=" stroke:none;fill-rule:nonzero;fill:rgb(0%,0%,0%);fill-opacity:1;" d="M 246.804688 96.652344 L 247.546875 96.554688 C 247.597656 97 247.722656 97.316406 247.917969 97.511719 C 248.113281 97.699219 248.371094 97.785156 248.699219 97.785156 C 249.074219 97.785156 249.402344 97.648438 249.675781 97.375 C 249.960938 97.101562 250.105469 96.789062 250.105469 96.4375 C 250.105469 96.125 250 95.871094 249.792969 95.675781 C 249.582031 95.472656 249.304688 95.363281 248.953125 95.363281 C 248.914062 95.363281 248.828125 95.375 248.699219 95.382812 L 248.835938 94.738281 C 248.914062 94.753906 248.984375 94.757812 249.050781 94.757812 C 249.492188 94.757812 249.832031 94.65625 250.066406 94.445312 C 250.300781 94.226562 250.417969 93.957031 250.417969 93.644531 C 250.417969 93.363281 250.320312 93.117188 250.125 92.921875 C 249.929688 92.726562 249.695312 92.628906 249.421875 92.628906 C 249.132812 92.628906 248.878906 92.738281 248.660156 92.941406 C 248.4375 93.136719 248.300781 93.421875 248.25 93.78125 L 247.488281 93.625 C 247.605469 93.109375 247.839844 92.707031 248.191406 92.433594 C 248.554688 92.152344 248.976562 92.003906 249.460938 92.003906 C 249.980469 92.003906 250.398438 92.160156 250.710938 92.472656 C 251.035156 92.785156 251.199219 93.167969 251.199219 93.605469 C 251.199219 93.949219 251.105469 94.242188 250.925781 94.484375 C 250.753906 94.734375 250.5 94.933594 250.164062 95.089844 C 250.398438 95.238281 250.574219 95.414062 250.691406 95.617188 C 250.820312 95.828125 250.886719 96.0625 250.886719 96.320312 C 250.886719 96.882812 250.675781 97.371094 250.261719 97.785156 C 249.84375 98.191406 249.34375 98.390625 248.757812 98.390625 C 248.183594 98.390625 247.722656 98.234375 247.371094 97.921875 C 247.03125 97.609375 246.84375 97.191406 246.804688 96.652344 Z M 246.804688 96.652344 "/>
<path style="fill-rule:nonzero;fill:rgb(69.803922%,85.098039%,100%);fill-opacity:1;stroke-width:1;stroke-linecap:round;stroke-linejoin:round;stroke:rgb(0%,0%,0%);stroke-opacity:1;stroke-miterlimit:10;" d="M 282.640625 138.484375 C 287.621875 143.465625 287.621875 151.534375 282.640625 156.515625 C 277.659375 161.496875 269.590625 161.496875 264.609375 156.515625 C 259.628125 151.534375 259.628125 143.465625 264.609375 138.484375 C 269.590625 133.503125 277.659375 133.503125 282.640625 138.484375 " transform="matrix(1.25,0,0,1.25,-30,-92.5)"/>
<path style=" stroke:none;fill-rule:nonzero;fill:rgb(0%,0%,0%);fill-opacity:1;" d="M 306.765625 94.855469 L 309.304688 91.886719 L 307.859375 89.015625 L 308.953125 89.015625 L 309.441406 90.050781 C 309.621094 90.441406 309.785156 90.824219 309.929688 91.183594 L 311.628906 89.015625 L 312.839844 89.015625 L 310.378906 91.964844 L 311.863281 94.855469 L 310.75 94.855469 L 310.183594 93.664062 C 310.050781 93.421875 309.910156 93.109375 309.753906 92.726562 L 308.015625 94.855469 Z M 306.765625 94.855469 "/>
<path style=" stroke:none;fill-rule:nonzero;fill:rgb(0%,0%,0%);fill-opacity:1;" d="M 315.027344 97.355469 L 315.359375 95.753906 L 312.800781 95.753906 L 312.976562 94.992188 L 316.472656 91.085938 L 317.117188 91.085938 L 316.277344 95.070312 L 317.15625 95.070312 L 317.019531 95.753906 L 316.140625 95.753906 L 315.789062 97.355469 Z M 315.496094 95.070312 L 316.042969 92.453125 L 313.71875 95.070312 Z M 315.496094 95.070312 "/>
<path style="fill-rule:nonzero;fill:rgb(40%,74.901961%,100%);fill-opacity:1;stroke-width:1;stroke-linecap:round;stroke-linejoin:round;stroke:rgb(0%,0%,0%);stroke-opacity:1;stroke-miterlimit:10;" d="M 248.265625 78.234375 C 253.246875 83.215625 253.246875 91.284375 248.265625 96.265625 C 243.284375 101.246875 235.215625 101.246875 230.234375 96.265625 C 225.253125 91.284375 225.253125 83.215625 230.234375 78.234375 C 235.215625 73.253125 243.284375 73.253125 248.265625 78.234375 " transform="matrix(1.25,0,0,1.25,-30,-92.5)"/>
<path style=" stroke:none;fill-rule:nonzero;fill:rgb(0%,0%,0%);fill-opacity:1;" d="M 264.046875 17.335938 C 264.046875 16.195312 264.382812 15.246094 265.0625 14.503906 C 265.609375 13.894531 266.332031 13.585938 267.230469 13.585938 C 267.933594 13.585938 268.5 13.8125 268.929688 14.25 C 269.359375 14.679688 269.574219 15.265625 269.574219 16.007812 C 269.574219 16.6875 269.4375 17.3125 269.164062 17.882812 C 268.890625 18.460938 268.503906 18.898438 268.011719 19.210938 C 267.515625 19.523438 266.988281 19.679688 266.429688 19.679688 C 265.972656 19.679688 265.554688 19.582031 265.179688 19.386719 C 264.8125 19.191406 264.535156 18.917969 264.339844 18.566406 C 264.144531 18.207031 264.046875 17.796875 264.046875 17.335938 Z M 265.042969 17.238281 C 265.042969 17.785156 265.171875 18.207031 265.433594 18.488281 C 265.707031 18.761719 266.042969 18.898438 266.449219 18.898438 C 266.65625 18.898438 266.863281 18.859375 267.074219 18.78125 C 267.28125 18.695312 267.476562 18.5625 267.660156 18.390625 C 267.839844 18.210938 267.992188 18.011719 268.109375 17.785156 C 268.238281 17.566406 268.34375 17.328125 268.421875 17.0625 C 268.539062 16.703125 268.597656 16.351562 268.597656 16.007812 C 268.597656 15.492188 268.460938 15.085938 268.1875 14.796875 C 267.925781 14.5 267.59375 14.347656 267.191406 14.347656 C 266.878906 14.347656 266.589844 14.425781 266.332031 14.582031 C 266.082031 14.730469 265.855469 14.945312 265.648438 15.226562 C 265.4375 15.515625 265.28125 15.847656 265.179688 16.222656 C 265.085938 16.605469 265.042969 16.941406 265.042969 17.238281 Z M 265.042969 17.238281 "/>
<path style=" stroke:none;fill-rule:nonzero;fill:rgb(0%,0%,0%);fill-opacity:1;" d="M 272.375 22.042969 L 272.707031 20.441406 L 270.148438 20.441406 L 270.324219 19.679688 L 273.820312 15.773438 L 274.464844 15.773438 L 273.625 19.757812 L 274.503906 19.757812 L 274.367188 20.441406 L 273.488281 20.441406 L 273.136719 22.042969 Z M 272.84375 19.757812 L 273.390625 17.140625 L 271.066406 19.757812 Z M 272.84375 19.757812 "/>
<path style="fill-rule:nonzero;fill:rgb(40%,74.901961%,100%);fill-opacity:1;stroke-width:1;stroke-linecap:round;stroke-linejoin:round;stroke:rgb(0%,0%,0%);stroke-opacity:1;stroke-miterlimit:10;" d="M 202.640625 78.234375 C 207.621875 83.215625 207.621875 91.284375 202.640625 96.265625 C 197.659375 101.246875 189.590625 101.246875 184.609375 96.265625 C 179.628125 91.284375 179.628125 83.215625 184.609375 78.234375 C 189.590625 73.253125 197.659375 73.253125 202.640625 78.234375 " transform="matrix(1.25,0,0,1.25,-30,-92.5)"/>
<path style=" stroke:none;fill-rule:nonzero;fill:rgb(0%,0%,0%);fill-opacity:1;" d="M 207.015625 17.335938 C 207.015625 16.195312 207.351562 15.246094 208.03125 14.503906 C 208.578125 13.894531 209.300781 13.585938 210.199219 13.585938 C 210.902344 13.585938 211.46875 13.8125 211.898438 14.25 C 212.328125 14.679688 212.542969 15.265625 212.542969 16.007812 C 212.542969 16.6875 212.40625 17.3125 212.132812 17.882812 C 211.859375 18.460938 211.472656 18.898438 210.980469 19.210938 C 210.484375 19.523438 209.957031 19.679688 209.398438 19.679688 C 208.941406 19.679688 208.523438 19.582031 208.148438 19.386719 C 207.78125 19.191406 207.503906 18.917969 207.308594 18.566406 C 207.113281 18.207031 207.015625 17.796875 207.015625 17.335938 Z M 208.011719 17.238281 C 208.011719 17.785156 208.140625 18.207031 208.402344 18.488281 C 208.675781 18.761719 209.011719 18.898438 209.417969 18.898438 C 209.625 18.898438 209.832031 18.859375 210.042969 18.78125 C 210.25 18.695312 210.445312 18.5625 210.628906 18.390625 C 210.808594 18.210938 210.960938 18.011719 211.078125 17.785156 C 211.207031 17.566406 211.3125 17.328125 211.390625 17.0625 C 211.507812 16.703125 211.566406 16.351562 211.566406 16.007812 C 211.566406 15.492188 211.429688 15.085938 211.15625 14.796875 C 210.894531 14.5 210.5625 14.347656 210.160156 14.347656 C 209.847656 14.347656 209.558594 14.425781 209.300781 14.582031 C 209.050781 14.730469 208.824219 14.945312 208.617188 15.226562 C 208.40625 15.515625 208.25 15.847656 208.148438 16.222656 C 208.054688 16.605469 208.011719 16.941406 208.011719 17.238281 Z M 208.011719 17.238281 "/>
<path style=" stroke:none;fill-rule:nonzero;fill:rgb(0%,0%,0%);fill-opacity:1;" d="M 213.214844 20.402344 L 213.957031 20.304688 C 214.003906 20.75 214.132812 21.066406 214.328125 21.261719 C 214.523438 21.449219 214.78125 21.535156 215.109375 21.535156 C 215.484375 21.535156 215.8125 21.398438 216.085938 21.125 C 216.367188 20.851562 216.515625 20.539062 216.515625 20.1875 C 216.515625 19.875 216.40625 19.621094 216.203125 19.425781 C 215.992188 19.222656 215.714844 19.113281 215.363281 19.113281 C 215.324219 19.113281 215.234375 19.125 215.109375 19.132812 L 215.246094 18.488281 C 215.324219 18.503906 215.390625 18.507812 215.460938 18.507812 C 215.898438 18.507812 216.242188 18.40625 216.476562 18.195312 C 216.710938 17.976562 216.828125 17.707031 216.828125 17.394531 C 216.828125 17.113281 216.730469 16.867188 216.535156 16.671875 C 216.339844 16.476562 216.105469 16.378906 215.832031 16.378906 C 215.542969 16.378906 215.289062 16.488281 215.070312 16.691406 C 214.84375 16.886719 214.707031 17.171875 214.660156 17.53125 L 213.898438 17.375 C 214.015625 16.859375 214.25 16.457031 214.601562 16.183594 C 214.960938 15.902344 215.386719 15.753906 215.871094 15.753906 C 216.386719 15.753906 216.808594 15.910156 217.121094 16.222656 C 217.441406 16.535156 217.609375 16.917969 217.609375 17.355469 C 217.609375 17.699219 217.515625 17.992188 217.335938 18.234375 C 217.164062 18.484375 216.910156 18.683594 216.574219 18.839844 C 216.808594 18.988281 216.984375 19.164062 217.101562 19.367188 C 217.226562 19.578125 217.296875 19.8125 217.296875 20.070312 C 217.296875 20.632812 217.085938 21.121094 216.671875 21.535156 C 216.25 21.941406 215.753906 22.140625 215.167969 22.140625 C 214.589844 22.140625 214.132812 21.984375 213.78125 21.671875 C 213.4375 21.359375 213.253906 20.941406 213.214844 20.402344 Z M 213.214844 20.402344 "/>
<path style="fill-rule:nonzero;fill:rgb(40%,74.901961%,100%);fill-opacity:1;stroke-width:1;stroke-linecap:round;stroke-linejoin:round;stroke:rgb(0%,0%,0%);stroke-opacity:1;stroke-miterlimit:10;" d="M 111.390625 78.234375 C 116.371875 83.215625 116.371875 91.284375 111.390625 96.265625 C 106.409375 101.246875 98.340625 101.246875 93.359375 96.265625 C 88.378125 91.284375 88.378125 83.215625 93.359375 78.234375 C 98.340625 73.253125 106.409375 73.253125 111.390625 78.234375 " transform="matrix(1.25,0,0,1.25,-30,-92.5)"/>
<path style=" stroke:none;fill-rule:nonzero;fill:rgb(0%,0%,0%);fill-opacity:1;" d="M 92.953125 17.335938 C 92.953125 16.195312 93.289062 15.246094 93.96875 14.503906 C 94.515625 13.894531 95.238281 13.585938 96.136719 13.585938 C 96.839844 13.585938 97.40625 13.8125 97.835938 14.25 C 98.265625 14.679688 98.480469 15.265625 98.480469 16.007812 C 98.480469 16.6875 98.34375 17.3125 98.070312 17.882812 C 97.796875 18.460938 97.410156 18.898438 96.917969 19.210938 C 96.421875 19.523438 95.894531 19.679688 95.335938 19.679688 C 94.878906 19.679688 94.460938 19.582031 94.085938 19.386719 C 93.71875 19.191406 93.441406 18.917969 93.246094 18.566406 C 93.050781 18.207031 92.953125 17.796875 92.953125 17.335938 Z M 93.949219 17.238281 C 93.949219 17.785156 94.078125 18.207031 94.339844 18.488281 C 94.613281 18.761719 94.949219 18.898438 95.355469 18.898438 C 95.5625 18.898438 95.769531 18.859375 95.980469 18.78125 C 96.1875 18.695312 96.382812 18.5625 96.566406 18.390625 C 96.746094 18.210938 96.898438 18.011719 97.015625 17.785156 C 97.144531 17.566406 97.25 17.328125 97.328125 17.0625 C 97.445312 16.703125 97.503906 16.351562 97.503906 16.007812 C 97.503906 15.492188 97.367188 15.085938 97.09375 14.796875 C 96.832031 14.5 96.5 14.347656 96.097656 14.347656 C 95.785156 14.347656 95.496094 14.425781 95.238281 14.582031 C 94.988281 14.730469 94.761719 14.945312 94.554688 15.226562 C 94.34375 15.515625 94.1875 15.847656 94.085938 16.222656 C 93.992188 16.605469 93.949219 16.941406 93.949219 17.238281 Z M 93.949219 17.238281 "/>
<path style=" stroke:none;fill-rule:nonzero;fill:rgb(0%,0%,0%);fill-opacity:1;" d="M 100.773438 22.042969 L 101.769531 17.316406 C 101.339844 17.660156 100.734375 17.921875 99.953125 18.117188 L 100.109375 17.414062 C 100.484375 17.257812 100.859375 17.058594 101.242188 16.808594 C 101.617188 16.566406 101.894531 16.351562 102.082031 16.164062 C 102.199219 16.046875 102.304688 15.910156 102.414062 15.753906 L 102.863281 15.753906 L 101.554688 22.042969 Z M 100.773438 22.042969 "/>
<path style="fill-rule:nonzero;fill:rgb(40%,74.901961%,100%);fill-opacity:1;stroke-width:1;stroke-linecap:round;stroke-linejoin:round;stroke:rgb(0%,0%,0%);stroke-opacity:1;stroke-miterlimit:10;" d="M 293.890625 78.234375 C 298.871875 83.215625 298.871875 91.284375 293.890625 96.265625 C 288.909375 101.246875 280.840625 101.246875 275.859375 96.265625 C 270.878125 91.284375 270.878125 83.215625 275.859375 78.234375 C 280.840625 73.253125 288.909375 73.253125 293.890625 78.234375 " transform="matrix(1.25,0,0,1.25,-30,-92.5)"/>
<path style=" stroke:none;fill-rule:nonzero;fill:rgb(0%,0%,0%);fill-opacity:1;" d="M 321.078125 17.335938 C 321.078125 16.195312 321.414062 15.246094 322.09375 14.503906 C 322.640625 13.894531 323.363281 13.585938 324.261719 13.585938 C 324.964844 13.585938 325.53125 13.8125 325.960938 14.25 C 326.390625 14.679688 326.605469 15.265625 326.605469 16.007812 C 326.605469 16.6875 326.46875 17.3125 326.195312 17.882812 C 325.921875 18.460938 325.535156 18.898438 325.042969 19.210938 C 324.546875 19.523438 324.019531 19.679688 323.460938 19.679688 C 323.003906 19.679688 322.585938 19.582031 322.210938 19.386719 C 321.84375 19.191406 321.566406 18.917969 321.371094 18.566406 C 321.175781 18.207031 321.078125 17.796875 321.078125 17.335938 Z M 322.074219 17.238281 C 322.074219 17.785156 322.203125 18.207031 322.464844 18.488281 C 322.738281 18.761719 323.074219 18.898438 323.480469 18.898438 C 323.6875 18.898438 323.894531 18.859375 324.105469 18.78125 C 324.3125 18.695312 324.507812 18.5625 324.691406 18.390625 C 324.871094 18.210938 325.023438 18.011719 325.140625 17.785156 C 325.269531 17.566406 325.375 17.328125 325.453125 17.0625 C 325.570312 16.703125 325.628906 16.351562 325.628906 16.007812 C 325.628906 15.492188 325.492188 15.085938 325.21875 14.796875 C 324.957031 14.5 324.625 14.347656 324.222656 14.347656 C 323.910156 14.347656 323.621094 14.425781 323.363281 14.582031 C 323.113281 14.730469 322.886719 14.945312 322.679688 15.226562 C 322.46875 15.515625 322.3125 15.847656 322.210938 16.222656 C 322.117188 16.605469 322.074219 16.941406 322.074219 17.238281 Z M 322.074219 17.238281 "/>
<path style=" stroke:none;fill-rule:nonzero;fill:rgb(0%,0%,0%);fill-opacity:1;" d="M 327.394531 20.246094 L 328.195312 20.167969 C 328.179688 20.285156 328.175781 20.359375 328.175781 20.382812 C 328.175781 20.570312 328.21875 20.753906 328.3125 20.949219 C 328.414062 21.136719 328.546875 21.277344 328.703125 21.378906 C 328.867188 21.488281 329.042969 21.535156 329.230469 21.535156 C 329.464844 21.535156 329.703125 21.457031 329.953125 21.300781 C 330.195312 21.136719 330.402344 20.890625 330.558594 20.578125 C 330.714844 20.257812 330.792969 19.933594 330.792969 19.621094 C 330.792969 19.269531 330.683594 18.992188 330.480469 18.78125 C 330.269531 18.578125 329.996094 18.46875 329.660156 18.46875 C 329.433594 18.46875 329.21875 18.527344 329.015625 18.644531 C 328.820312 18.753906 328.632812 18.910156 328.46875 19.113281 L 327.785156 19.074219 L 328.742188 15.871094 L 331.789062 15.871094 L 331.652344 16.574219 L 329.269531 16.574219 L 328.800781 18.175781 C 328.964844 18.050781 329.140625 17.953125 329.328125 17.882812 C 329.523438 17.820312 329.71875 17.785156 329.914062 17.785156 C 330.390625 17.785156 330.78125 17.941406 331.085938 18.253906 C 331.398438 18.566406 331.554688 19.007812 331.554688 19.5625 C 331.554688 20.046875 331.445312 20.492188 331.242188 20.890625 C 331.03125 21.296875 330.738281 21.609375 330.363281 21.828125 C 329.996094 22.039062 329.601562 22.140625 329.171875 22.140625 C 328.820312 22.140625 328.496094 22.0625 328.214844 21.90625 C 327.941406 21.75 327.730469 21.53125 327.589844 21.242188 C 327.457031 20.960938 327.394531 20.671875 327.394531 20.382812 C 327.394531 20.359375 327.394531 20.316406 327.394531 20.246094 Z M 327.394531 20.246094 "/>
<path style="fill:none;stroke-width:1;stroke-linecap:round;stroke-linejoin:round;stroke:rgb(0%,0%,0%);stroke-opacity:1;stroke-miterlimit:10;" d="M 112.4125 135.7625 L 106.15625 105.515625 " transform="matrix(1.25,0,0,1.25,-30,-92.5)"/>
<path style="fill:none;stroke-width:1;stroke-linecap:butt;stroke-linejoin:miter;stroke:rgb(0%,0%,0%);stroke-opacity:1;stroke-miterlimit:10;" d="M 105.34375 101.596875 L 106.15625 105.515625 M 104.6875 105.81875 L 105.34375 101.596875 L 107.625 105.2125 " transform="matrix(1.25,0,0,1.25,-30,-92.5)"/>
<path style="fill:none;stroke-width:1;stroke-linecap:round;stroke-linejoin:round;stroke:rgb(0%,0%,0%);stroke-opacity:1;stroke-miterlimit:10;" d="M 121.065625 137.03125 L 139.125 103.65625 " transform="matrix(1.25,0,0,1.25,-30,-92.5)"/>
<path style="fill:none;stroke-width:1;stroke-linecap:butt;stroke-linejoin:miter;stroke:rgb(0%,0%,0%);stroke-opacity:1;stroke-miterlimit:10;" d="M 141.028125 100.1375 L 139.125 103.65625 M 137.80625 102.940625 L 141.028125 100.1375 L 140.44375 104.371875 " transform="matrix(1.25,0,0,1.25,-30,-92.5)"/>
<path style="fill:none;stroke-width:1;stroke-linecap:round;stroke-linejoin:round;stroke:rgb(0%,0%,0%);stroke-opacity:1;stroke-miterlimit:10;" d="M 125.075 140.434375 L 178.890625 98.684375 " transform="matrix(1.25,0,0,1.25,-30,-92.5)"/>
<path style="fill:none;stroke-width:1;stroke-linecap:butt;stroke-linejoin:miter;stroke:rgb(0%,0%,0%);stroke-opacity:1;stroke-miterlimit:10;" d="M 182.05 96.23125 L 178.890625 98.684375 M 177.96875 97.496875 L 182.05 96.23125 L 179.809375 99.86875 " transform="matrix(1.25,0,0,1.25,-30,-92.5)"/>
<path style="fill:none;stroke-width:1;stroke-linecap:round;stroke-linejoin:round;stroke:rgb(0%,0%,0%);stroke-opacity:1;stroke-miterlimit:10;" d="M 126.45 142.628125 L 222.503125 95.46875 " transform="matrix(1.25,0,0,1.25,-30,-92.5)"/>
<path style="fill:none;stroke-width:1;stroke-linecap:butt;stroke-linejoin:miter;stroke:rgb(0%,0%,0%);stroke-opacity:1;stroke-miterlimit:10;" d="M 226.096875 93.70625 L 222.503125 95.46875 M 221.84375 94.125 L 226.096875 93.70625 L 223.16875 96.815625 " transform="matrix(1.25,0,0,1.25,-30,-92.5)"/>
<path style="fill:none;stroke-width:1;stroke-linecap:round;stroke-linejoin:round;stroke:rgb(0%,0%,0%);stroke-opacity:1;stroke-miterlimit:10;" d="M 127.003125 143.940625 L 267.31875 93.55625 " transform="matrix(1.25,0,0,1.25,-30,-92.5)"/>
<path style="fill:none;stroke-width:1;stroke-linecap:butt;stroke-linejoin:miter;stroke:rgb(0%,0%,0%);stroke-opacity:1;stroke-miterlimit:10;" d="M 271.0875 92.203125 L 267.31875 93.55625 M 266.8125 92.140625 L 271.0875 92.203125 L 267.828125 94.965625 " transform="matrix(1.25,0,0,1.25,-30,-92.5)"/>
<path style="fill:none;stroke-width:1;stroke-linecap:round;stroke-linejoin:round;stroke:rgb(0%,0%,0%);stroke-opacity:1;stroke-miterlimit:10;" d="M 158.54375 139.559375 L 116.025 99.9625 " transform="matrix(1.25,0,0,1.25,-30,-92.5)"/>
<path style="fill:none;stroke-width:1;stroke-linecap:butt;stroke-linejoin:miter;stroke:rgb(0%,0%,0%);stroke-opacity:1;stroke-miterlimit:10;" d="M 113.096875 97.234375 L 116.025 99.9625 M 115 101.059375 L 113.096875 97.234375 L 117.046875 98.8625 " transform="matrix(1.25,0,0,1.25,-30,-92.5)"/>
<path style="fill:none;stroke-width:1;stroke-linecap:round;stroke-linejoin:round;stroke:rgb(0%,0%,0%);stroke-opacity:1;stroke-miterlimit:10;" d="M 163.925 136.125 L 153.778125 104.984375 " transform="matrix(1.25,0,0,1.25,-30,-92.5)"/>
<path style="fill:none;stroke-width:1;stroke-linecap:butt;stroke-linejoin:miter;stroke:rgb(0%,0%,0%);stroke-opacity:1;stroke-miterlimit:10;" d="M 152.5375 101.184375 L 153.778125 104.984375 M 152.35 105.45 L 152.5375 101.184375 L 155.203125 104.51875 " transform="matrix(1.25,0,0,1.25,-30,-92.5)"/>
<path style="fill:none;stroke-width:1;stroke-linecap:round;stroke-linejoin:round;stroke:rgb(0%,0%,0%);stroke-opacity:1;stroke-miterlimit:10;" d="M 172.8375 136.5 L 186.371875 104.434375 " transform="matrix(1.25,0,0,1.25,-30,-92.5)"/>
<path style="fill:none;stroke-width:1;stroke-linecap:butt;stroke-linejoin:miter;stroke:rgb(0%,0%,0%);stroke-opacity:1;stroke-miterlimit:10;" d="M 187.925 100.75 L 186.371875 104.434375 M 184.9875 103.85 L 187.925 100.75 L 187.753125 105.01875 " transform="matrix(1.25,0,0,1.25,-30,-92.5)"/>
<path style="fill:none;stroke-width:1;stroke-linecap:round;stroke-linejoin:round;stroke:rgb(0%,0%,0%);stroke-opacity:1;stroke-miterlimit:10;" d="M 177.565625 139.965625 L 225.06875 99.36875 " transform="matrix(1.25,0,0,1.25,-30,-92.5)"/>
<path style="fill:none;stroke-width:1;stroke-linecap:butt;stroke-linejoin:miter;stroke:rgb(0%,0%,0%);stroke-opacity:1;stroke-miterlimit:10;" d="M 228.1125 96.76875 L 225.06875 99.36875 M 224.096875 98.225 L 228.1125 96.76875 L 226.046875 100.50625 " transform="matrix(1.25,0,0,1.25,-30,-92.5)"/>
<path style="fill:none;stroke-width:1;stroke-linecap:round;stroke-linejoin:round;stroke:rgb(0%,0%,0%);stroke-opacity:1;stroke-miterlimit:10;" d="M 179.184375 142.35625 L 268.3375 95.875 " transform="matrix(1.25,0,0,1.25,-30,-92.5)"/>
<path style="fill:none;stroke-width:1;stroke-linecap:butt;stroke-linejoin:miter;stroke:rgb(0%,0%,0%);stroke-opacity:1;stroke-miterlimit:10;" d="M 271.88125 94.025 L 268.3375 95.875 M 267.640625 94.54375 L 271.88125 94.025 L 269.028125 97.203125 " transform="matrix(1.25,0,0,1.25,-30,-92.5)"/>
<path style="fill:none;stroke-width:1;stroke-linecap:round;stroke-linejoin:round;stroke:rgb(0%,0%,0%);stroke-opacity:1;stroke-miterlimit:10;" d="M 209.4125 142.40625 L 118.95625 95.79375 " transform="matrix(1.25,0,0,1.25,-30,-92.5)"/>
<path style="fill:none;stroke-width:1;stroke-linecap:butt;stroke-linejoin:miter;stroke:rgb(0%,0%,0%);stroke-opacity:1;stroke-miterlimit:10;" d="M 115.403125 93.9625 L 118.95625 95.79375 M 118.26875 97.128125 L 115.403125 93.9625 L 119.64375 94.4625 " transform="matrix(1.25,0,0,1.25,-30,-92.5)"/>
<path style="fill:none;stroke-width:1;stroke-linecap:round;stroke-linejoin:round;stroke:rgb(0%,0%,0%);stroke-opacity:1;stroke-miterlimit:10;" d="M 210.98125 140.059375 L 162.29375 99.234375 " transform="matrix(1.25,0,0,1.25,-30,-92.5)"/>
<path style="fill:none;stroke-width:1;stroke-linecap:butt;stroke-linejoin:miter;stroke:rgb(0%,0%,0%);stroke-opacity:1;stroke-miterlimit:10;" d="M 159.225 96.6625 L 162.29375 99.234375 M 161.328125 100.38125 L 159.225 96.6625 L 163.253125 98.08125 " transform="matrix(1.25,0,0,1.25,-30,-92.5)"/>
<path style="fill:none;stroke-width:1;stroke-linecap:round;stroke-linejoin:round;stroke:rgb(0%,0%,0%);stroke-opacity:1;stroke-miterlimit:10;" d="M 215.565625 136.596875 L 201.203125 104.29375 " transform="matrix(1.25,0,0,1.25,-30,-92.5)"/>
<path style="fill:none;stroke-width:1;stroke-linecap:butt;stroke-linejoin:miter;stroke:rgb(0%,0%,0%);stroke-opacity:1;stroke-miterlimit:10;" d="M 199.578125 100.640625 L 201.203125 104.29375 M 199.83125 104.903125 L 199.578125 100.640625 L 202.575 103.684375 " transform="matrix(1.25,0,0,1.25,-30,-92.5)"/>
<path style="fill:none;stroke-width:1;stroke-linecap:round;stroke-linejoin:round;stroke:rgb(0%,0%,0%);stroke-opacity:1;stroke-miterlimit:10;" d="M 224.45 136.046875 L 233.8375 105.1 " transform="matrix(1.25,0,0,1.25,-30,-92.5)"/>
<path style="fill:none;stroke-width:1;stroke-linecap:butt;stroke-linejoin:miter;stroke:rgb(0%,0%,0%);stroke-opacity:1;stroke-miterlimit:10;" d="M 234.996875 101.275 L 233.8375 105.1 M 232.403125 104.6625 L 234.996875 101.275 L 235.275 105.534375 " transform="matrix(1.25,0,0,1.25,-30,-92.5)"/>
<path style="fill:none;stroke-width:1;stroke-linecap:round;stroke-linejoin:round;stroke:rgb(0%,0%,0%);stroke-opacity:1;stroke-miterlimit:10;" d="M 229.9875 139.4625 L 271.3625 100.10625 " transform="matrix(1.25,0,0,1.25,-30,-92.5)"/>
<path style="fill:none;stroke-width:1;stroke-linecap:butt;stroke-linejoin:miter;stroke:rgb(0%,0%,0%);stroke-opacity:1;stroke-miterlimit:10;" d="M 274.2625 97.346875 L 271.3625 100.10625 M 270.328125 99.015625 L 274.2625 97.346875 L 272.39375 101.190625 " transform="matrix(1.25,0,0,1.25,-30,-92.5)"/>
<path style="fill:none;stroke-width:1;stroke-linecap:round;stroke-linejoin:round;stroke:rgb(0%,0%,0%);stroke-opacity:1;stroke-miterlimit:10;" d="M 261.59375 143.265625 L 119.96875 93.440625 " transform="matrix(1.25,0,0,1.25,-30,-92.5)"/>
<path style="fill:none;stroke-width:1;stroke-linecap:butt;stroke-linejoin:miter;stroke:rgb(0%,0%,0%);stroke-opacity:1;stroke-miterlimit:10;" d="M 116.2 92.1125 L 119.96875 93.440625 M 119.471875 94.85625 L 116.2 92.1125 L 120.46875 92.028125 " transform="matrix(1.25,0,0,1.25,-30,-92.5)"/>
<path style="fill:none;stroke-width:1;stroke-linecap:round;stroke-linejoin:round;stroke:rgb(0%,0%,0%);stroke-opacity:1;stroke-miterlimit:10;" d="M 262.125 141.984375 L 164.81875 95.315625 " transform="matrix(1.25,0,0,1.25,-30,-92.5)"/>
<path style="fill:none;stroke-width:1;stroke-linecap:butt;stroke-linejoin:miter;stroke:rgb(0%,0%,0%);stroke-opacity:1;stroke-miterlimit:10;" d="M 161.2125 93.5875 L 164.81875 95.315625 M 164.171875 96.66875 L 161.2125 93.5875 L 165.46875 93.965625 " transform="matrix(1.25,0,0,1.25,-30,-92.5)"/>
<path style="fill:none;stroke-width:1;stroke-linecap:round;stroke-linejoin:round;stroke:rgb(0%,0%,0%);stroke-opacity:1;stroke-miterlimit:10;" d="M 263.4375 139.828125 L 208.525 98.471875 " transform="matrix(1.25,0,0,1.25,-30,-92.5)"/>
<path style="fill:none;stroke-width:1;stroke-linecap:butt;stroke-linejoin:miter;stroke:rgb(0%,0%,0%);stroke-opacity:1;stroke-miterlimit:10;" d="M 205.328125 96.0625 L 208.525 98.471875 M 207.621875 99.66875 L 205.328125 96.0625 L 209.425 97.275 " transform="matrix(1.25,0,0,1.25,-30,-92.5)"/>
<path style="fill:none;stroke-width:1;stroke-linecap:round;stroke-linejoin:round;stroke:rgb(0%,0%,0%);stroke-opacity:1;stroke-miterlimit:10;" d="M 267.30625 136.421875 L 248.49375 103.453125 " transform="matrix(1.25,0,0,1.25,-30,-92.5)"/>
<path style="fill:none;stroke-width:1;stroke-linecap:butt;stroke-linejoin:miter;stroke:rgb(0%,0%,0%);stroke-opacity:1;stroke-miterlimit:10;" d="M 246.5125 99.975 L 248.49375 103.453125 M 247.190625 104.19375 L 246.5125 99.975 L 249.796875 102.70625 " transform="matrix(1.25,0,0,1.25,-30,-92.5)"/>
<path style="fill:none;stroke-width:1;stroke-linecap:round;stroke-linejoin:round;stroke:rgb(0%,0%,0%);stroke-opacity:1;stroke-miterlimit:10;" d="M 275.965625 134.965625 L 281.453125 105.5875 " transform="matrix(1.25,0,0,1.25,-30,-92.5)"/>
<path style="fill:none;stroke-width:1;stroke-linecap:butt;stroke-linejoin:miter;stroke:rgb(0%,0%,0%);stroke-opacity:1;stroke-miterlimit:10;" d="M 282.1875 101.653125 L 281.453125 105.5875 M 279.975 105.309375 L 282.1875 101.653125 L 282.925 105.859375 " transform="matrix(1.25,0,0,1.25,-30,-92.5)"/>
</g>
</svg>
